<svg xmlns="http://www.w3.org/2000/svg" xmlns:xlink="http://www.w3.org/1999/xlink" width="1920" zoomAndPan="magnify" viewBox="0 0 1440 809.999993" height="1080" preserveAspectRatio="xMidYMid meet" version="1.0"><path fill="#5e9adf" d="M 623.132812 301.347656 C 623.902344 284.546875 653.609375 257.40625 652.96875 209.933594 C 652.324219 162.460938 551.507812 98.15625 488.578125 161.085938 C 435.765625 213.902344 472.503906 265.359375 485.679688 280.535156 C 488.273438 283.523438 490.039062 287.554688 489.027344 291.382812 C 472.6875 353.183594 477.992188 399.957031 490.289062 458.542969 C 490.808594 477.699219 487.210938 525.128906 487 525.9375 C 470.746094 588.976562 509.699219 591.28125 537.199219 591.28125 C 564.695312 591.28125 581.277344 567.277344 589.273438 508.125 C 624.257812 424.820312 622.390625 317.589844 623.132812 301.347656 Z M 623.132812 301.347656 " fill-opacity="1" fill-rule="nonzero"/><path fill="#5e9adf" d="M 717.679688 861.082031 C 717.644531 859.800781 717.441406 858.507812 717.039062 857.234375 C 707.425781 825.847656 690.601562 777.492188 670.609375 724.734375 C 649.535156 669.132812 624.945312 608.640625 601.5625 557.980469 C 586.769531 525.925781 580.789062 503.753906 532.816406 501.570312 C 501.867188 501.070312 477.53125 552.730469 482.816406 571.441406 C 486.039062 584.394531 491.332031 596.828125 498.429688 608.128906 C 508.929688 627.359375 518.695312 647.214844 529.195312 666.503906 C 554.644531 714.417969 580.28125 762.238281 606.804688 809.566406 C 619.785156 832.402344 632.511719 855.445312 647.066406 877.332031 C 648.648438 879.660156 650.476562 882.925781 652.671875 885.480469 C 657.722656 898.417969 670.292969 907.585938 685.015625 907.585938 C 704.191406 907.585938 719.734375 892.042969 719.734375 872.871094 C 719.734375 868.730469 719.007812 864.761719 717.679688 861.082031 Z M 717.679688 861.082031 " fill-opacity="1" fill-rule="nonzero"/><path stroke-linecap="butt" transform="matrix(0.818728, 0, 0, 0.818728, 579.380713, 717.95816)" fill-opacity="1" fill="#f7e264" fill-rule="nonzero" stroke-linejoin="miter" d="M -80.290611 -203.322648 C -80.290611 -203.322648 -46.305924 -202.129868 -35.055624 -187.449133 C -23.810095 -172.773168 -22.631628 -158.450266 -18.499838 -132.676677 C -14.363277 -106.907859 21.959257 -4.810667 21.959257 -4.810667 C 21.959257 -4.810667 100.315358 156.31959 100.315358 156.31959 C 100.315358 156.31959 129.247428 181.701947 129.247428 181.701947 C 129.247428 181.701947 127.89243 196.354056 111.61814 193.26237 C 104.323098 197.627945 99.079638 203.324662 95.42496 199.836974 C 91.765511 196.344514 90.410513 187.055144 89.594652 174.42599 C 78.897801 155.985612 -28.843626 -65.40866 -35.084251 -79.068376 C -41.324875 -92.732863 -66.69769 -123.86919 -72.904917 -126.607813 C -79.107373 -129.346436 -129.247071 -184.88227 -80.290611 -203.322648 Z M -80.290611 -203.322648 " stroke="#183944" stroke-width="5" stroke-opacity="1" stroke-miterlimit="10"/><path stroke-linecap="butt" transform="matrix(0.818728, 0, 0, 0.818728, 526.169932, 590.236502)" fill="none" stroke-linejoin="miter" d="M 12.564732 25.565833 C 9.745 22.087686 6.701026 17.349964 2.621718 15.350865 C -1.476674 13.342224 -4.129416 11.314498 -7.063655 7.607338 C -10.303245 3.523259 -13.342449 -0.928196 -14.435035 -6.023751 C -15.52285 -11.124079 -14.268046 -17.021183 -10.160112 -20.227375 C -7.120908 -22.598622 -3.094083 -23.175927 0.732355 -23.667352 C 5.660922 -24.29714 10.594259 -24.931699 15.522826 -25.566258 " stroke="#183944" stroke-width="5" stroke-opacity="1" stroke-miterlimit="10"/><path stroke-linecap="butt" transform="matrix(0.818728, 0, 0, 0.818728, 568.798634, 644.10474)" fill="none" stroke-linejoin="miter" d="M -14.215314 -57.553127 C -13.633237 -50.44893 -13.065474 -43.172972 -14.926211 -36.293018 C -15.832723 -32.929378 -17.326084 -29.642077 -17.283144 -26.159159 C -17.221119 -20.734396 -13.528273 -16.144579 -10.379333 -11.736064 C -5.946963 -5.528837 14.473429 50.484109 17.326559 57.554909 " stroke="#183944" stroke-width="5" stroke-opacity="1" stroke-miterlimit="10"/><path stroke-linecap="butt" transform="matrix(0.818728, 0, 0, 0.818728, 617.129807, 714.214904)" fill-opacity="1" fill="#f7e264" fill-rule="nonzero" stroke-linejoin="miter" d="M -85.914654 -153.716011 C -85.914654 -153.716011 -104.498166 -169.594297 -104.498166 -169.594297 C -104.498166 -169.594297 -104.43137 -175.749042 -104.43137 -175.749042 C -104.43137 -175.749042 -85.308722 -184.031706 -81.759009 -184.179611 C -78.214067 -184.332286 -74.511678 -181.302625 -73.62425 -177.18992 C -72.736821 -173.072444 -71.629922 -171.855808 -70.542106 -168.807063 C -69.459062 -165.763088 -59.573302 -148.114716 -59.573302 -148.114716 C -59.573302 -148.114716 12.117544 -4.866616 18.658749 11.579434 C 25.195183 28.025484 68.316564 128.572062 76.937977 135.227774 C 76.937977 135.227774 102.420528 159.856295 102.420528 159.856295 C 102.420528 159.856295 102.325106 168.625613 102.325106 168.625613 C 102.325106 168.625613 104.495965 174.804213 104.495965 174.804213 C 104.495965 174.804213 102.554119 182.24716 95.263848 183.287264 C 87.973577 184.332139 73.660218 179.322463 70.501737 178.167852 C 67.338484 177.018012 64.924298 176.245091 59.890766 175.629617 C 54.857235 175.014142 47.748266 176.989386 47.791206 172.886223 C 47.834147 168.778289 47.404746 139.664916 47.051683 137.98071 C 46.693849 136.301276 8.429468 33.998926 2.040939 20.868804 C -4.347591 7.738683 -78.18544 -135.065704 -80.566229 -139.569641 C -82.942247 -144.073578 -85.914654 -153.716011 -85.914654 -153.716011 Z M -85.914654 -153.716011 " stroke="#183944" stroke-width="5" stroke-opacity="1" stroke-miterlimit="10"/><path stroke-linecap="butt" transform="matrix(0.818728, 0, 0, 0.818728, 544.477491, 572.838495)" fill="none" stroke-linejoin="miter" d="M -10.707527 3.136273 C -8.622547 2.921572 -6.599593 3.89011 -4.505071 4.004617 C -2.019318 4.133437 0.351929 3.055164 2.603898 2.000746 C 5.728981 0.545555 9.059223 -1.100482 10.705259 -4.134914 " stroke="#183944" stroke-width="5" stroke-opacity="1" stroke-miterlimit="10"/><path stroke-linecap="butt" transform="matrix(0.818728, 0, 0, 0.818728, 558.373802, 372.49418)" fill-opacity="1" fill="#f7e264" fill-rule="nonzero" stroke-linejoin="miter" d="M -2.961402 -194.163154 C -2.961402 -194.163154 -13.071405 -195.208029 -12.02653 -204.273157 C -10.981655 -213.333513 -29.531768 -231.110705 -7.532135 -244.708397 C 14.467498 -258.301317 42.354693 -261.087651 51.763342 -231.807289 C 51.763342 -231.807289 65.012741 -234.250102 66.7542 -224.140099 C 68.495659 -214.030097 44.096152 -185.446318 39.563588 -166.972542 C 35.031025 -148.498766 -16.559094 158.603901 -14.464572 170.455362 C -14.464572 170.455362 -14.11628 192.593358 -9.583717 200.608839 C -5.055924 208.629092 -9.411956 225.533169 -14.11628 226.057992 C -12.899645 231.4589 -26.144273 261.092325 -53.158354 248.191217 C -68.497504 233.553421 -56.646042 212.112009 -56.646042 212.112009 C -56.646042 212.112009 -47.642939 197.311995 -47.642939 197.311995 C -47.642939 197.311995 14.81579 -104.575838 -2.961402 -194.163154 Z M -2.961402 -194.163154 " stroke="#183944" stroke-width="5" stroke-opacity="1" stroke-miterlimit="10"/><path stroke-linecap="butt" transform="matrix(0.818728, 0, 0, 0.818728, 526.066732, 553.78516)" fill="none" stroke-linejoin="miter" d="M -4.318261 -15.61588 C -6.99963 -12.276096 -8.273519 -8.020257 -9.008272 -3.802587 C -9.499697 -0.959 -9.76688 1.999094 -8.993958 4.775886 C -8.221037 7.533593 -6.479578 9.900069 -4.742891 12.175893 C -3.984283 13.168286 -3.197048 14.179763 -2.109233 14.790467 C -0.64927 15.61587 1.135129 15.596786 2.80025 15.386857 C 5.386197 15.067192 8.081879 14.237017 9.770856 12.252231 " stroke="#183944" stroke-width="5" stroke-opacity="1" stroke-miterlimit="10"/><path stroke-linecap="butt" transform="matrix(0.818728, 0, 0, 0.818728, 542.507667, 538.836857)" fill="none" stroke-linejoin="miter" d="M -1.016071 -20.106622 C -2.275646 -11.494751 -3.458884 -2.305574 0.243505 5.566774 C 0.901919 6.959941 1.698696 8.291083 2.237833 9.731961 C 3.45924 13.009721 3.234997 16.626229 2.90579 20.104376 " stroke="#183944" stroke-width="5" stroke-opacity="1" stroke-miterlimit="10"/><path stroke-linecap="butt" transform="matrix(0.818728, 0, 0, 0.818728, 593.149248, 203.116534)" fill="none" stroke-linejoin="miter" d="M 8.878063 -24.747 C 9.226355 -19.408117 7.079351 -14.202825 4.335957 -9.608237 C 1.597335 -5.013648 -1.771076 -0.795979 -4.252058 3.941743 C -7.5823 10.315959 -9.228336 17.558519 -8.970696 24.743826 " stroke="#183944" stroke-width="5" stroke-opacity="1" stroke-miterlimit="10"/><path stroke-linecap="butt" transform="matrix(0.818728, 0, 0, 0.818728, 518.90206, 364.722834)" fill-opacity="1" fill="#ef597a" fill-rule="nonzero" stroke-linejoin="miter" d="M -12.037189 84.486771 C -12.037189 84.486771 -37.200075 4.255621 -16.412306 -50.812643 C 17.529441 -138.205244 -3.711585 -149.694101 36.833391 -180.644355 C 36.833391 -180.644355 21.207974 -110.251254 21.518097 -87.645688 C 21.823448 -65.040123 37.195996 54.948769 21.15072 100.532047 C 5.105445 146.120097 -5.934927 180.64392 -5.934927 180.64392 C -5.934927 180.64392 2.552896 131.897389 -12.037189 84.486771 Z M -12.037189 84.486771 " stroke="#183944" stroke-width="5" stroke-opacity="1" stroke-miterlimit="10"/><path stroke-linecap="butt" transform="matrix(0.818728, 0, 0, 0.818728, 540.206979, 218.631439)" fill-opacity="1" fill="#f7e264" fill-rule="nonzero" stroke-linejoin="miter" d="M -14.652045 25.622591 C -10.300784 23.752312 -8.225347 20.651085 -4.861707 17.311301 C -3.659385 19.911561 4.475374 25.183648 4.537399 28.04632 C 7.31419 26.486164 13.492791 5.55049 14.227543 -9.249523 C 14.652173 -17.765972 12.04237 -24.364431 11.269449 -25.180292 C 8.554682 -28.047735 6.751198 -23.429291 5.963963 -21.492217 C 4.446747 -17.751659 -13.306589 15.832254 -14.652045 25.622591 Z M -14.652045 25.622591 " stroke="#183944" stroke-width="5" stroke-opacity="1" stroke-miterlimit="10"/><path stroke-linecap="butt" transform="matrix(0.818728, 0, 0, 0.818728, 547.092507, 391.71378)" fill-opacity="1" fill="#ef597a" fill-rule="nonzero" stroke-linejoin="miter" d="M -47.738306 17.496995 C -47.132374 -62.719842 5.960647 -122.49243 27.27801 -193.925636 C 48.290022 -149.143905 7.907264 -83.235657 5.88908 -36.712468 C -11.826087 48.814625 2.964384 137.791238 -48.291756 193.928234 C -38.539587 135.92573 -47.485437 79.860302 -47.738306 17.496995 Z M -47.738306 17.496995 " stroke="#183944" stroke-width="5" stroke-opacity="1" stroke-miterlimit="10"/><path stroke-linecap="butt" transform="matrix(0.818728, 0, 0, 0.818728, 570.60149, 225.041243)" fill-opacity="1" fill="#f7e264" fill-rule="nonzero" stroke-linejoin="miter" d="M -4.289148 11.080648 C -4.289148 11.080648 4.680558 -35.337576 6.006929 -30.480577 C 7.328529 -25.618805 8.430658 26.911223 4.608991 35.337021 C 0.295899 32.813098 -0.419769 26.42934 -0.481794 22.979821 C -0.496107 22.163959 -1.478958 21.767956 -2.051492 22.350033 C -2.051492 22.350033 -8.435251 30.074476 -8.435251 30.074476 C -8.435251 30.074476 -5.605977 16.619918 -4.289148 11.080648 Z M -4.289148 11.080648 " stroke="#183944" stroke-width="5" stroke-opacity="1" stroke-miterlimit="10"/><path stroke-linecap="butt" transform="matrix(0.818728, 0, 0, 0.818728, 605.020752, 304.496342)" fill-opacity="1" fill="#70c484" fill-rule="nonzero" stroke-linejoin="miter" d="M -16.924653 119.430367 C -17.630778 119.120244 -22.306476 -30.926702 2.479492 -84.606571 C 12.050358 -109.874421 12.198263 -119.426203 12.198263 -119.426203 C 12.198263 -119.426203 22.308265 -107.74173 16.172605 -71.676836 C 14.082855 -59.405516 13.305162 -41.203694 11.911995 -19.876789 C 9.216313 21.48882 4.206637 74.596154 -17.12504 118.924628 " stroke="#183944" stroke-width="5" stroke-opacity="1" stroke-miterlimit="10"/><path stroke-linecap="butt" transform="matrix(0.818728, 0, 0, 0.818728, 612.909239, 212.364077)" fill-opacity="1" fill="#f7e264" fill-rule="nonzero" stroke-linejoin="miter" d="M -9.617458 32.98178 C -6.034347 30.715498 -2.923577 27.704921 -0.542788 24.198148 C 1.513565 28.520783 3.245481 32.447414 6.761797 35.701318 C 9.142585 23.024453 11.017635 9.884789 8.426917 -2.753907 C 7.153028 -8.961134 5.048965 -15.020456 2.076557 -20.626522 C 0.89809 -22.854635 -6.201336 -35.703261 -9.192828 -34.586819 C -11.020167 -33.904549 -7.093535 -16.671264 -6.826353 -13.994666 C -6.086829 -6.680539 -5.895984 0.690841 -6.253818 8.033594 C -6.659363 16.425994 -7.780577 24.784996 -9.617458 32.98178 Z M -9.617458 32.98178 " stroke="#183944" stroke-width="5" stroke-opacity="1" stroke-miterlimit="10"/><path stroke-linecap="butt" transform="matrix(0.818728, 0, 0, 0.818728, 580.481113, 377.989484)" fill-opacity="1" fill="#70c484" fill-rule="nonzero" stroke-linejoin="miter" d="M 12.475691 -178.121684 C -2.887314 -122.046713 -10.974362 -61.625252 -17.873402 -0.979549 C -23.861157 51.664987 -28.947171 104.481283 -37.115328 154.783199 C -37.878707 158.9627 -31.719191 174.650141 -25.573989 170.251169 C -13.460116 161.18127 -7.081129 143.146438 -0.563779 130.0354 C 21.45971 93.383658 29.222322 -18.017218 28.983766 -23.670995 C 27.437923 -60.742595 38.84567 -109.42233 12.475691 -178.121684 Z M 12.475691 -178.121684 " stroke="#183944" stroke-width="5" stroke-opacity="1" stroke-miterlimit="10"/><path stroke-linecap="butt" transform="matrix(0.818728, 0, 0, 0.818728, 595.6194, 208.255718)" fill-opacity="1" fill="#f7e264" fill-rule="nonzero" stroke-linejoin="miter" d="M -9.812125 39.974999 C -9.812125 39.974999 3.84282 -37.632035 -9.201422 -65.590797 C -9.420893 -66.063138 -8.943781 -66.545021 -8.500067 -66.311236 C -3.151642 -63.477191 1.085113 -52.355711 2.635727 -47.804062 C 2.812258 -47.279239 3.523155 -47.346035 3.613806 -47.894714 C 3.981182 -50.079887 7.158748 -49.974922 7.368677 -47.765893 C 9.692213 -23.514292 11.815361 28.066284 5.340951 66.545365 C 1.190077 54.116598 -2.874917 47.002859 -4.29671 45.313882 C -4.482784 45.08964 -4.802449 45.084869 -5.012378 45.285256 C -5.012378 45.285256 -10.876085 51.063082 -10.876085 51.063082 C -11.23869 51.416145 -11.815995 51.072624 -11.720573 50.557343 C -11.720573 50.557343 -9.812125 39.974999 -9.812125 39.974999 Z M -9.812125 39.974999 " stroke="#183944" stroke-width="5" stroke-opacity="1" stroke-miterlimit="10"/><path stroke-linecap="butt" transform="matrix(0.818728, 0, 0, 0.818728, 558.364778, 545.419385)" fill-opacity="1" fill="#f7e264" fill-rule="nonzero" stroke-linejoin="round" d="M -9.00016 -24.095884 C -11.08514 -33.036963 -8.575531 -54.430664 -8.546904 -54.368639 C -7.707187 -52.302744 -5.049673 -51.744523 -3.451348 -53.295137 C -3.451348 -53.295137 0.809262 -57.426927 0.809262 -57.426927 C 2.526865 -59.092048 5.422935 -58.319126 6.028867 -56.009904 C 6.472581 -54.306615 7.383865 -52.88005 8.867683 -52.293202 C 10.284706 -51.739752 11.191219 -50.36567 10.971747 -48.862767 C 6.04318 -15.21683 2.517323 24.870118 8.519392 59.09336 C -0.335807 33.477218 -3.184165 0.857072 -9.00016 -24.095884 Z M -9.00016 -24.095884 " stroke="#183944" stroke-width="5" stroke-opacity="1" stroke-miterlimit="4"/></svg>