<svg xmlns="http://www.w3.org/2000/svg" xmlns:xlink="http://www.w3.org/1999/xlink" width="1920" zoomAndPan="magnify" viewBox="0 0 1440 809.999993" height="1080" preserveAspectRatio="xMidYMid meet" version="1.0"><defs><clipPath id="796fb7c290"><path d="M 589 38.84375 L 758 38.84375 L 758 425 L 589 425 Z M 589 38.84375 " clip-rule="nonzero"/></clipPath><clipPath id="e8f265da75"><path d="M 576 38.84375 L 684 38.84375 L 684 129 L 576 129 Z M 576 38.84375 " clip-rule="nonzero"/></clipPath><clipPath id="f8526637c2"><path d="M 616 38.84375 L 664 38.84375 L 664 70 L 616 70 Z M 616 38.84375 " clip-rule="nonzero"/></clipPath><clipPath id="d4220f8745"><path d="M 565 38.84375 L 715 38.84375 L 715 121 L 565 121 Z M 565 38.84375 " clip-rule="nonzero"/></clipPath><clipPath id="2932dd4051"><path d="M 570 38.84375 L 698 38.84375 L 698 140 L 570 140 Z M 570 38.84375 " clip-rule="nonzero"/></clipPath><clipPath id="8d30e2f4e3"><path d="M 574 38.84375 L 678 38.84375 L 678 105 L 574 105 Z M 574 38.84375 " clip-rule="nonzero"/></clipPath><clipPath id="ddc7e3e157"><path d="M 624 38.84375 L 629 38.84375 L 629 41 L 624 41 Z M 624 38.84375 " clip-rule="nonzero"/></clipPath><clipPath id="e4be5d749e"><path d="M 574 38.84375 L 680 38.84375 L 680 91 L 574 91 Z M 574 38.84375 " clip-rule="nonzero"/></clipPath><clipPath id="c51c41d60e"><path d="M 579 38.84375 L 684 38.84375 L 684 81 L 579 81 Z M 579 38.84375 " clip-rule="nonzero"/></clipPath><clipPath id="48db6d8f67"><path d="M 593 38.84375 L 731 38.84375 L 731 80 L 593 80 Z M 593 38.84375 " clip-rule="nonzero"/></clipPath><clipPath id="db67c1a130"><path d="M 641 38.84375 L 726 38.84375 L 726 121 L 641 121 Z M 641 38.84375 " clip-rule="nonzero"/></clipPath><clipPath id="7013660d68"><path d="M 590 38.84375 L 777 38.84375 L 777 172 L 590 172 Z M 590 38.84375 " clip-rule="nonzero"/></clipPath><clipPath id="6e5c74a706"><path d="M 624 38.84375 L 752 38.84375 L 752 132 L 624 132 Z M 624 38.84375 " clip-rule="nonzero"/></clipPath><clipPath id="addcd90739"><path d="M 621 38.84375 L 761 38.84375 L 761 140 L 621 140 Z M 621 38.84375 " clip-rule="nonzero"/></clipPath><clipPath id="f7f5b4867a"><path d="M 601 38.84375 L 756 38.84375 L 756 478 L 601 478 Z M 601 38.84375 " clip-rule="nonzero"/></clipPath><clipPath id="0d50a01399"><path d="M 650 38.84375 L 773 38.84375 L 773 188 L 650 188 Z M 650 38.84375 " clip-rule="nonzero"/></clipPath></defs><g clip-path="url(#796fb7c290)"><path fill="#5e9adf" d="M 634.164062 393.785156 C 634.164062 393.785156 604.546875 263.011719 611.546875 153.996094 C 595.371094 110.761719 568.277344 69.886719 617.15625 25.667969 C 617.15625 25.667969 749.476562 25.613281 749.476562 25.613281 C 749.476562 25.613281 778.425781 284.949219 725.339844 380.695312 C 712.554688 444.269531 633.074219 430.421875 634.164062 393.785156 Z M 634.164062 393.785156 " fill-opacity="1" fill-rule="nonzero"/></g><path fill="#5e9adf" d="M 630.136719 365.316406 C 630.136719 365.316406 637.105469 391.148438 612.578125 444.378906 C 606.929688 456.628906 589.316406 527.234375 603.640625 584.703125 C 617.964844 642.167969 607.417969 713.984375 607.417969 713.984375 C 607.417969 713.984375 612.652344 753.261719 652.925781 747.71875 C 667.570312 745.699219 679.5625 714.566406 674.601562 695.777344 C 674.601562 695.777344 707.71875 440.832031 707.71875 440.832031 C 707.71875 440.832031 750.007812 374.863281 705.644531 346.101562 C 683.910156 332.011719 636.425781 343.148438 630.136719 365.316406 Z M 630.136719 365.316406 " fill-opacity="1" fill-rule="nonzero"/><path fill="#5e9adf" d="M 667.78125 703.378906 C 671.921875 710.074219 676.636719 716.539062 681.835938 722.441406 C 691.152344 733.019531 703.949219 740.457031 715.289062 748.648438 C 717.214844 750.039062 719.140625 751.429688 721.0625 752.820312 C 722.929688 754.167969 724.804688 755.519531 726.828125 756.617188 C 729.941406 758.304688 733.351562 759.355469 736.738281 760.398438 C 745.070312 762.960938 753.675781 765.550781 762.351562 764.695312 C 766.253906 764.308594 773.113281 762.863281 773.914062 768.59375 C 774.007812 769.277344 773.875 769.96875 773.734375 770.644531 C 773.296875 772.695312 772.707031 774.816406 771.289062 776.363281 C 770.484375 777.234375 769.464844 777.871094 768.460938 778.5 C 762.023438 782.503906 755.628906 786.800781 748.746094 789.980469 C 745.121094 791.65625 741.085938 792.210938 737.105469 792.527344 C 725.082031 793.480469 712.910156 792.367188 701.25 789.304688 C 696.097656 787.949219 690.382812 784.597656 685.167969 784.308594 C 681.628906 784.113281 677.496094 784.261719 674.101562 785.4375 C 674.101562 785.4375 609.164062 797.882812 600.339844 784.308594 C 591.515625 770.730469 586.988281 749.574219 605.996094 716.257812 C 625 682.941406 667.78125 703.378906 667.78125 703.378906 Z M 667.78125 703.378906 " fill-opacity="1" fill-rule="nonzero"/><path stroke-linecap="butt" transform="matrix(0.71403, 0.000494465, -0.000494465, 0.71403, 668.703597, 582.375351)" fill-opacity="1" fill="#f7e264" fill-rule="nonzero" stroke-linejoin="miter" d="M -3.984033 -190.602755 C -5.215298 -191.116149 -21.740991 -220.805192 -9.875734 -221.836431 C 1.989519 -222.873142 19.125825 -219.925354 20.558684 -220.599244 C 21.991548 -221.267663 37.313227 -223.838566 37.313227 -223.838566 C 37.313227 -223.838566 51.661355 -170.771669 37.31254 -137.931999 C 22.963729 -105.086858 -1.45338 161.59436 -1.451951 163.656817 C -1.450523 165.719274 -4.608865 179.004346 -6.268103 168.775267 C -6.268103 168.775267 -0.763567 193.920311 -8.675165 192.54717 C -16.581297 191.168556 -22.770338 188.760258 -22.770338 188.760258 C -22.770338 188.760258 -24.83824 220.398809 -33.431532 222.122563 C -42.030299 223.84085 -37.902323 188.759796 -36.874304 188.075245 C -35.840817 187.38522 -45.122468 190.482599 -46.845741 190.483792 C -48.563547 190.479511 -51.661157 188.763853 -51.656641 187.385231 C -51.657592 186.012083 -39.966249 139.240354 -36.870552 122.393893 C -33.774858 105.541961 -16.240172 -50.92703 -14.522627 -74.999345 C -12.799611 -99.071664 -18.989199 -189.169979 -14.520582 -190.546222 C -10.046494 -191.922468 5.769807 -191.23317 5.770288 -182.638685 C 5.770773 -174.038728 1.64286 -59.867613 1.299156 -58.494227 " stroke="#183944" stroke-width="5" stroke-opacity="1" stroke-miterlimit="10"/><path stroke-linecap="butt" transform="matrix(0.71403, 0.000494465, -0.000494465, 0.71403, 662.139117, 623.231173)" fill="none" stroke-linejoin="miter" d="M 10.796798 -117.092608 C 10.796798 -117.092608 -10.798466 100.683976 -9.145888 117.094963 " stroke="#183944" stroke-width="5" stroke-opacity="1" stroke-miterlimit="10"/><path stroke-linecap="butt" transform="matrix(0.71403, 0.000494465, -0.000494465, 0.71403, 683.517092, 453.206133)" fill="none" stroke-linejoin="miter" d="M -18.977817 -12.721414 C -18.977817 -12.721414 -14.851486 -26.477638 -6.599276 -23.042275 C 1.652938 -19.601442 16.440758 -3.095608 15.067379 4.471335 C 13.694 12.038279 18.762739 24.070332 18.977764 26.477296 " stroke="#183944" stroke-width="5" stroke-opacity="1" stroke-miterlimit="10"/><path fill="#f7e264" d="M 629.300781 77.210938 C 629.300781 77.210938 627.113281 71.816406 627.113281 71.816406 C 627.113281 71.816406 632.035156 72.101562 632.035156 72.101562 C 632.035156 72.101562 632.632812 75.828125 632.617188 75.976562 C 632.601562 76.125 631.917969 78.066406 631.917969 78.066406 " fill-opacity="1" fill-rule="nonzero"/><g clip-path="url(#e8f265da75)"><path stroke-linecap="butt" transform="matrix(0.71403, -0.000300979, 0.000300979, 0.71403, 629.873879, 74.940969)" fill="none" stroke-linejoin="miter" d="M -0.803964 3.178756 C -0.803964 3.178756 -3.864376 -4.377584 -3.864376 -4.377584 C -3.864376 -4.377584 3.028549 -3.975317 3.028549 -3.975317 C 3.028549 -3.975317 3.863367 1.244092 3.841397 1.45197 C 3.819426 1.659847 2.860906 4.378386 2.860906 4.378386 " stroke="#183944" stroke-width="5" stroke-opacity="1" stroke-miterlimit="10"/></g><g clip-path="url(#f8526637c2)"><path fill="#f7e264" d="M 621.917969 20.300781 C 623.0625 24.402344 621.121094 29.621094 621.121094 29.621094 C 621.121094 29.621094 620.421875 30.136719 619.636719 29.511719 C 618.847656 28.886719 617.3125 28.238281 617.078125 30.804688 C 616.84375 33.375 616.617188 33.875 616.238281 35.363281 C 615.863281 36.847656 616.007812 38.835938 617.863281 38.828125 C 621.160156 38.816406 619.5625 45.53125 619.5625 45.53125 C 619.5625 45.53125 619.4375 46.578125 619.109375 46.566406 C 618.78125 46.554688 617.308594 45.757812 617.125 46.769531 C 616.941406 47.785156 617.003906 53.265625 619.5625 54.667969 C 620.152344 55.886719 620.105469 55.464844 620.105469 55.464844 C 620.105469 55.464844 624.808594 56.394531 625.0625 58.710938 C 625.316406 61.027344 626.648438 69.722656 628.109375 69.953125 C 629.570312 70.179688 632.46875 69.589844 632.164062 65.488281 C 632.164062 65.488281 629.234375 41.554688 639.789062 33.753906 C 645.546875 29.496094 655.324219 24.308594 663.964844 20.285156 C 663.964844 20.285156 621.917969 20.300781 621.917969 20.300781 Z M 621.917969 20.300781 " fill-opacity="1" fill-rule="nonzero"/></g><g clip-path="url(#d4220f8745)"><path stroke-linecap="butt" transform="matrix(0.71403, -0.000300979, 0.000300979, 0.71403, 639.919198, 45.23451)" fill="none" stroke-linejoin="miter" d="M -25.196027 -34.930348 C -23.595531 -29.185429 -26.317554 -21.877708 -26.317554 -21.877708 C -26.317554 -21.877708 -27.297115 -21.155987 -28.396359 -22.031764 C -29.501073 -22.907543 -31.650678 -23.816587 -31.980438 -20.216999 C -32.310196 -16.622882 -32.627794 -15.917295 -33.159329 -13.838649 C -33.685394 -11.760001 -33.484151 -8.975325 -30.88556 -8.985171 C -26.268275 -8.999637 -28.509761 0.409038 -28.509761 0.409038 C -28.509761 0.409038 -28.68544 1.869644 -29.144972 1.853038 C -29.604505 1.836432 -31.666492 0.719538 -31.924215 2.141814 C -32.181935 3.558619 -32.097641 11.239531 -28.515153 13.199555 C -27.689795 14.906764 -27.755195 14.3159 -27.755195 14.3159 C -27.755195 14.3159 -21.169013 15.626176 -20.814782 18.864985 C -20.460553 22.109265 -18.600177 34.29332 -16.554266 34.611483 C -14.508355 34.929647 -10.448741 34.105281 -10.873037 28.366328 C -10.873037 28.366328 -14.961937 -5.159904 -0.175478 -16.078678 C 7.890858 -22.03288 21.587106 -29.29768 33.690689 -34.927409 C 33.690689 -34.927409 -25.196027 -34.930348 -25.196027 -34.930348 Z M -25.196027 -34.930348 " stroke="#183944" stroke-width="5" stroke-opacity="1" stroke-miterlimit="10"/></g><path fill="#f7e264" d="M 631.273438 73.976562 C 630.011719 72.167969 625.996094 72.277344 624.585938 71.363281 C 623.179688 70.449219 622.191406 66.855469 622.207031 64.546875 C 622.222656 62.242188 621.625 60.277344 621.339844 59.878906 C 621.050781 59.480469 621.046875 56.84375 621.046875 56.84375 C 621.046875 56.84375 622.546875 56.800781 624.066406 58.949219 C 625.582031 61.09375 628.621094 63.378906 628.832031 63.445312 C 629.039062 63.511719 633.546875 64.859375 633.742188 67.140625 C 633.9375 69.421875 633.914062 71.039062 634.613281 71.660156 C 635.3125 72.28125 636.523438 73.699219 636.050781 74.34375 C 635.582031 74.988281 636.96875 74.734375 637.039062 75.363281 C 637.105469 75.996094 638.035156 77.851562 638.699219 78.625 C 639.363281 79.394531 642.65625 82.136719 642.804688 82.230469 C 642.949219 82.324219 644.734375 83.671875 644.351562 84.378906 C 643.96875 85.085938 646.566406 85.289062 646.71875 86.164062 C 646.871094 87.035156 643.683594 90.105469 641.796875 88.25 C 639.910156 86.390625 639.464844 86.285156 639.464844 86.285156 C 639.464844 86.285156 636.796875 84.132812 637.105469 83.570312 C 637.417969 83.007812 634.871094 80.027344 633.609375 80.007812 C 630.828125 79.757812 629.191406 78.941406 629.117188 77.164062 C 629.117188 77.164062 629.222656 76.628906 629.695312 76.667969 " fill-opacity="1" fill-rule="nonzero"/><g clip-path="url(#2932dd4051)"><path stroke-linecap="butt" transform="matrix(0.71403, -0.000300979, 0.000300979, 0.71403, 633.959686, 73.454056)" fill="none" stroke-linejoin="miter" d="M -3.762404 0.730185 C -5.528375 -1.803498 -11.152328 -1.652689 -13.126714 -2.933667 C -15.095629 -4.214643 -16.477597 -9.248278 -16.454351 -12.481458 C -16.431108 -15.709167 -17.266967 -18.461286 -17.666093 -19.019467 C -18.07069 -19.577649 -18.074604 -23.27038 -18.074604 -23.27038 C -18.074604 -23.27038 -15.973827 -23.329672 -13.84699 -20.319886 C -11.725621 -17.315572 -7.470759 -14.113413 -7.175379 -14.020287 C -6.885471 -13.927162 -0.573069 -12.037107 -0.30088 -8.842098 C -0.0286916 -5.647089 -0.0624706 -3.382229 0.91642 -2.511974 C 1.89531 -1.641718 3.590392 0.344864 2.928056 1.247252 C 2.271191 2.149642 4.213442 1.794864 4.311544 2.67569 C 4.404172 3.561984 5.705105 6.161119 6.634669 7.244712 C 7.564235 8.322833 12.174424 12.165215 12.382255 12.296599 C 12.584616 12.427982 15.083934 14.31643 14.547388 15.306402 C 14.010841 16.296375 17.648742 16.582385 17.861583 17.807914 C 18.074427 19.027971 13.608516 23.326067 10.967259 20.726366 C 8.326004 18.121195 7.702406 17.973223 7.702406 17.973223 C 7.702406 17.973223 3.967183 14.957288 4.399701 14.169688 C 4.837689 13.38209 1.272547 9.206436 -0.49448 9.178338 C -4.389477 8.826571 -6.681222 7.682226 -6.784117 5.19301 C -6.784117 5.19301 -6.636091 4.443585 -5.974159 4.498571 " stroke="#183944" stroke-width="5" stroke-opacity="1" stroke-miterlimit="10"/></g><path fill="#f7e264" d="M 625.675781 53.667969 C 625.675781 53.667969 624.371094 48.050781 625.726562 47.53125 C 626.300781 47.3125 626.804688 47.566406 626.804688 47.566406 " fill-opacity="1" fill-rule="nonzero"/><g clip-path="url(#8d30e2f4e3)"><path stroke-linecap="butt" transform="matrix(0.71403, -0.000300979, 0.000300979, 0.71403, 625.587983, 50.490101)" fill="none" stroke-linejoin="miter" d="M 0.121086 4.450659 C 0.121086 4.450659 -1.702815 -3.41699 0.195828 -4.143794 C 1.000151 -4.449814 1.705723 -4.093921 1.705723 -4.093921 " stroke="#183944" stroke-width="5" stroke-opacity="1" stroke-miterlimit="10"/></g><g clip-path="url(#ddc7e3e157)"><path fill="#f7e264" d="M 625.398438 40.480469 C 625.398438 40.480469 624.246094 39.367188 625.5 37.402344 C 626.75 35.4375 626.945312 34.035156 626.945312 34.035156 C 626.945312 34.035156 627.191406 32.902344 628.796875 33.226562 " fill-opacity="1" fill-rule="nonzero"/></g><g clip-path="url(#e4be5d749e)"><path stroke-linecap="butt" transform="matrix(0.71403, -0.000300979, 0.000300979, 0.71403, 626.522543, 36.693219)" fill="none" stroke-linejoin="miter" d="M -1.576547 5.303385 C -1.576547 5.303385 -3.189748 3.743553 -1.432491 0.992527 C 0.319296 -1.758502 0.593659 -3.722371 0.593659 -3.722371 C 0.593659 -3.722371 0.938982 -5.308731 3.187252 -4.853714 " stroke="#183944" stroke-width="5" stroke-opacity="1" stroke-miterlimit="10"/></g><g clip-path="url(#c51c41d60e)"><path stroke-linecap="butt" transform="matrix(0.71403, -0.000300979, 0.000300979, 0.71403, 631.449646, 27.232385)" fill="none" stroke-linejoin="miter" d="M -2.190638 4.165074 C -2.190638 4.165074 2.068024 -1.648495 2.194911 -4.164968 " stroke="#183944" stroke-width="5" stroke-opacity="1" stroke-miterlimit="10"/></g><g clip-path="url(#48db6d8f67)"><path stroke-linecap="butt" transform="matrix(0.71403, -0.000300979, 0.000300979, 0.71403, 661.628349, 26.094353)" fill="none" stroke-linejoin="miter" d="M -24.35686 -8.135116 C -25.046501 -7.347624 -25.577778 -5.881698 -25.037299 -3.222705 C -23.964356 8.13494 -17.271784 3.640838 -13.551566 3.319634 C -9.82588 3.003903 2.354004 -1.941955 2.354004 -1.941955 C 2.828807 0.782659 11.428485 1.442769 21.906948 -3.432687 C 24.095661 -4.449317 25.201445 -6.111946 25.579777 -8.135949 C 25.579777 -8.135949 -24.35686 -8.135116 -24.35686 -8.135116 Z M -24.35686 -8.135116 " stroke="#183944" stroke-width="5" stroke-opacity="1" stroke-miterlimit="10"/></g><g clip-path="url(#db67c1a130)"><path fill="#f7e264" d="M 720.496094 85.414062 C 716.847656 83.941406 713.285156 80.433594 711.390625 77.042969 C 710.976562 76.300781 710.722656 75.441406 710.152344 74.832031 C 709.652344 74.300781 709.121094 74.171875 709.121094 73.265625 C 709.121094 72.628906 709.386719 72.027344 709.625 71.4375 C 711.191406 67.613281 711.828125 63.058594 709.773438 59.476562 C 709.140625 58.371094 708.28125 57.414062 707.542969 56.378906 C 706.804688 55.339844 706.171875 54.171875 706.085938 52.898438 C 706 51.605469 706.667969 51.039062 707.183594 49.992188 C 707.566406 49.210938 707.445312 48.246094 707.503906 47.386719 C 707.671875 44.867188 707.984375 42.359375 708.480469 39.886719 C 709.050781 37.023438 709.980469 34.023438 712.238281 32.175781 C 714.339844 30.460938 717.253906 30.03125 719.414062 28.390625 C 721.894531 26.503906 722.878906 23.453125 723.015625 20.257812 C 723.015625 20.257812 641.050781 20.292969 641.050781 20.292969 C 641 22.371094 640.964844 24.453125 641.433594 26.460938 C 642.1875 29.667969 644.386719 32.414062 647.175781 34.117188 C 648.390625 34.855469 649.949219 35.125 650.777344 36.34375 C 651.503906 37.410156 651.734375 38.945312 652.960938 39.601562 C 654.28125 40.3125 655.863281 39.414062 657.0625 38.515625 C 659.214844 36.90625 665.222656 32.4375 666.699219 37.023438 C 667.078125 38.191406 667.269531 39.453125 667.324219 40.75 C 667.46875 44.199219 666.636719 47.914062 665.640625 50.914062 C 663.75 56.621094 660.234375 61.796875 655.578125 65.609375 C 654.238281 66.710938 651.765625 67.492188 651.304688 69.351562 C 650.679688 71.863281 653.351562 73.738281 654.375 75.757812 C 655.171875 77.324219 655.605469 79.136719 655.238281 80.855469 C 654.820312 82.789062 653.46875 84.359375 652.351562 85.992188 C 650.8125 88.242188 649.660156 90.761719 648.945312 93.394531 C 648.371094 95.519531 647.480469 98.015625 648.136719 100.167969 C 649.777344 105.53125 653.574219 110.058594 657.300781 114.117188 C 658.722656 115.664062 660.21875 117.203125 661.988281 118.359375 C 663.652344 119.449219 665.351562 119.714844 667.195312 120.222656 C 671.625 121.445312 675.964844 120.332031 680.085938 118.535156 C 683.601562 117 686.996094 115.082031 690.738281 114.140625 C 694.183594 113.273438 697.542969 113.84375 700.28125 111.125 C 702.070312 109.351562 703.261719 107.070312 704.867188 105.128906 C 707.53125 101.90625 711.207031 99.761719 714.972656 98.066406 C 716.746094 97.265625 718.582031 96.660156 720.230469 95.625 C 721.738281 94.679688 723.816406 94.789062 725.035156 93.363281 C 726.484375 91.671875 725.695312 89.210938 724.46875 87.660156 C 723.300781 86.183594 722.109375 86.066406 720.496094 85.414062 Z M 700.601562 96.195312 C 696.6875 103.132812 688.617188 107.003906 680.664062 107.519531 C 677.597656 107.71875 674.382812 107.445312 671.71875 105.90625 C 665.546875 102.339844 665.449219 94.050781 670.636719 89.671875 C 673.730469 87.058594 677.828125 86.039062 681.769531 85.097656 C 684.816406 84.371094 687.859375 83.644531 690.90625 82.917969 C 693.265625 82.351562 695.804688 81.796875 698.0625 82.683594 C 700.488281 83.632812 702.078125 86.144531 702.386719 88.730469 C 702.695312 91.3125 701.878906 93.925781 700.601562 96.195312 Z M 700.601562 96.195312 " fill-opacity="1" fill-rule="nonzero"/></g><g clip-path="url(#7013660d68)"><path stroke-linecap="butt" transform="matrix(0.71403, -0.000300979, 0.000300979, 0.71403, 683.72786, 70.857578)" fill="none" stroke-linejoin="miter" d="M 51.485369 20.408083 C 46.376597 18.343472 41.389382 13.428672 38.73809 8.678979 C 38.158633 7.6393 37.803544 6.435594 37.00518 5.581827 C 36.305243 4.837515 35.561303 4.656668 35.561838 3.387464 C 35.562214 2.495738 35.934577 1.653406 36.268638 0.82747 C 38.46465 -4.527429 39.359064 -10.9059 36.483586 -15.923752 C 35.597984 -17.472336 34.394993 -18.813167 33.36164 -20.263341 C 32.32829 -21.718985 31.442725 -23.355101 31.323121 -25.138602 C 31.203529 -26.949458 32.139354 -27.742316 32.862106 -29.208162 C 33.398696 -30.302077 33.229674 -31.653414 33.312242 -32.856935 C 33.54897 -36.385443 33.988107 -39.897453 34.684347 -43.360119 C 35.48476 -47.369812 36.78856 -51.570767 39.95172 -54.157079 C 42.895974 -56.55748 46.977376 -57.157537 50.003646 -59.45396 C 53.47866 -62.094848 54.85908 -66.36689 55.052441 -70.841849 C 55.052441 -70.841849 -59.739457 -70.841 -59.739457 -70.841 C -59.811803 -67.930613 -59.862269 -65.014746 -59.206969 -62.202525 C -58.153016 -57.710628 -55.074628 -53.863422 -51.169547 -51.476546 C -49.468593 -50.441865 -47.285939 -50.063466 -46.126869 -48.356116 C -45.109946 -46.862184 -44.788081 -44.712059 -43.070666 -43.792256 C -41.221986 -42.795808 -39.005819 -44.053137 -37.325781 -45.310692 C -34.31047 -47.563353 -25.893882 -53.818297 -23.828662 -47.394814 C -23.298693 -45.758848 -23.031373 -43.991696 -22.955548 -42.175389 C -22.755168 -37.344668 -23.922622 -32.142515 -25.319424 -27.941599 C -27.970616 -19.95001 -32.897309 -12.703396 -39.420645 -7.366734 C -41.297748 -5.824785 -44.761168 -4.732103 -45.407809 -2.128318 C -46.284605 1.388979 -42.543747 4.016496 -41.111614 6.845457 C -39.996514 9.039682 -39.390335 11.578346 -39.905597 13.985241 C -40.492104 16.692995 -42.385896 18.891422 -43.951483 21.177519 C -46.10827 24.327738 -47.723616 27.855665 -48.72631 31.542501 C -49.531759 34.518227 -50.780554 38.013484 -49.862746 41.028232 C -47.573685 48.540481 -42.253358 54.883276 -37.036698 60.569542 C -35.046273 62.736782 -32.951901 64.893125 -30.474352 66.513499 C -28.144474 68.040809 -25.764872 68.41382 -23.182998 69.126101 C -16.979936 70.841048 -10.901322 69.284458 -5.128663 66.770365 C -0.204119 64.622452 4.551059 61.938338 9.792553 60.622106 C 14.61823 59.409643 19.322703 60.210349 23.159274 56.404353 C 25.665906 53.921707 27.335819 50.727517 29.585426 48.009522 C 33.318352 43.49776 38.467554 40.496511 43.742318 38.124447 C 46.226493 37.003998 48.798083 36.157122 51.107333 34.708358 C 53.219585 33.385337 56.129937 33.539743 57.83764 31.543654 C 59.868271 29.175693 58.764641 25.728681 57.047754 23.556085 C 55.412884 21.487468 53.744387 21.322643 51.485369 20.408083 Z M 23.616686 35.495494 C 18.130941 45.209161 6.826172 50.625869 -4.312495 51.343308 C -8.607119 51.620504 -13.109351 51.235656 -16.839466 49.078624 C -25.48108 44.080224 -25.612954 32.471323 -18.345268 26.341721 C -14.010924 22.683643 -8.271549 21.258207 -2.751048 19.942093 C 1.516533 18.92634 5.778644 17.910585 10.046226 16.894832 C 13.350868 16.102972 16.907156 15.32763 20.068702 16.570814 C 23.465452 17.901628 25.690547 21.420232 26.121207 25.042023 C 26.551868 28.658344 25.406948 32.317766 23.616686 35.495494 Z M 23.616686 35.495494 " stroke="#183944" stroke-width="5" stroke-opacity="1" stroke-miterlimit="10"/></g><g clip-path="url(#6e5c74a706)"><path stroke-linecap="butt" transform="matrix(0.71403, -0.000300979, 0.000300979, 0.71403, 687.6809, 66.034061)" fill="none" stroke-linejoin="miter" d="M 18.967145 -17.469388 C 10.83936 -21.477373 0.592433 -20.792383 -6.931922 -15.740619 C -14.45628 -10.683384 -18.968034 -1.456199 -18.331773 7.587152 C -18.043548 11.673893 -16.628419 15.908819 -13.456506 18.514214 C -10.290061 21.114136 -5.114923 21.477384 -2.263441 18.529873 " stroke="#183944" stroke-width="5" stroke-opacity="1" stroke-miterlimit="10"/></g><path fill="#f7e264" d="M 672.800781 79.226562 C 672.800781 79.226562 667.929688 56.203125 687.632812 54.675781 C 707.335938 53.148438 719.675781 78.128906 699.605469 89.003906 C 693.140625 90.40625 672.800781 79.226562 672.800781 79.226562 Z M 672.800781 79.226562 " fill-opacity="1" fill-rule="nonzero"/><g clip-path="url(#addcd90739)"><path stroke-linecap="butt" transform="matrix(0.71403, -0.000300979, 0.000300979, 0.71403, 693.805411, 71.780128)" fill="none" stroke-linejoin="miter" d="M -29.42141 10.416341 C -29.42141 10.416341 -36.229791 -21.83089 -8.634636 -23.958306 C 18.96052 -26.085721 36.227741 8.906745 8.112821 24.125349 C -0.94203 26.085517 -29.42141 10.416341 -29.42141 10.416341 Z M -29.42141 10.416341 " stroke="#183944" stroke-width="5" stroke-opacity="1" stroke-miterlimit="10"/></g><path fill="#f7e264" d="M 666.722656 80.667969 C 666.722656 80.667969 671.046875 75.277344 675.988281 75.714844 C 680.925781 76.15625 695.359375 77.738281 697.523438 83.285156 C 699.6875 88.832031 701.035156 91.796875 701.035156 91.796875 C 701.035156 91.796875 697.179688 102.238281 696.210938 106.539062 C 695.242188 110.835938 700.066406 160.726562 702.722656 172.492188 C 705.375 184.261719 707.6875 344.292969 701.375 382.117188 C 700.371094 394.941406 702.449219 400.441406 702.464844 406.933594 C 702.484375 413.421875 702.476562 421.554688 690.226562 424.867188 C 677.976562 428.175781 654.742188 430.886719 651.878906 414.234375 C 650.609375 405.082031 654.847656 394.199219 658.460938 393.105469 C 662.078125 392.007812 671.058594 385.546875 672.285156 381.113281 C 673.511719 376.679688 691.511719 285.371094 680.203125 173.765625 C 671.175781 128.917969 664.890625 114.828125 663.382812 107.066406 C 661.875 99.304688 663.035156 85.460938 666.722656 80.667969 Z M 666.722656 80.667969 " fill-opacity="1" fill-rule="nonzero"/><g clip-path="url(#f7f5b4867a)"><path stroke-linecap="butt" transform="matrix(0.71403, -0.000300979, 0.000300979, 0.71403, 679.097084, 253.074264)" fill="none" stroke-linejoin="miter" d="M -17.228625 -241.462561 C -17.228625 -241.462561 -11.169368 -249.009586 -4.24918 -248.39395 C 2.665535 -247.772845 22.878869 -245.548687 25.906367 -237.779004 C 28.933865 -230.00932 30.819509 -225.856257 30.819509 -225.856257 C 30.819509 -225.856257 25.413756 -211.235329 24.054481 -205.21265 C 22.695209 -199.195443 29.422082 -129.320705 33.135218 -112.841363 C 36.842881 -96.356552 39.987067 127.768801 31.124073 180.737945 C 29.71053 198.697689 32.6177 206.401673 32.63575 215.494 C 32.659274 224.580858 32.643531 235.970869 15.485434 240.602798 C -1.672662 245.229257 -34.214036 249.012212 -38.214235 225.688891 C -39.986813 212.870272 -34.044669 197.63138 -28.983618 196.101714 C -23.917094 194.566581 -11.336121 185.52333 -9.615701 179.3148 C -7.895281 173.10627 17.367647 45.239084 1.595831 -111.071206 C -11.020501 -173.88574 -19.814553 -193.622297 -21.921665 -204.493485 C -24.028776 -215.364673 -22.395803 -234.752179 -17.228625 -241.462561 Z M -17.228625 -241.462561 " stroke="#183944" stroke-width="5" stroke-opacity="1" stroke-miterlimit="10"/></g><path stroke-linecap="round" transform="matrix(0.71403, -0.000300979, 0.000300979, 0.71403, 691.029979, 92.213979)" fill="none" stroke-linejoin="round" d="M -1.501329 -16.148957 C -1.501329 -16.148957 1.499604 -10.250267 1.252769 -8.70216 C 1.005933 -7.148583 -1.229666 1.269897 -1.197632 3.146364 C -1.171067 5.017358 0.328685 16.150884 0.328685 16.150884 " stroke="#183944" stroke-width="5" stroke-opacity="1" stroke-miterlimit="4"/><path stroke-linecap="butt" transform="matrix(0.71403, -0.000300979, 0.000300979, 0.71403, 667.119117, 415.330487)" fill-opacity="1" fill="#f7e264" fill-rule="nonzero" stroke-linejoin="miter" d="M -20.392968 -10.767319 C -20.392968 -10.767319 -18.36147 10.76625 -1.035619 10.494547 C 16.28476 10.228312 20.393596 9.436791 20.393596 9.436791 " stroke="#183944" stroke-width="5" stroke-opacity="1" stroke-miterlimit="10"/><path stroke-linecap="round" transform="matrix(0.71403, -0.000300979, 0.000300979, 0.71403, 679.8155, 104.205836)" fill="none" stroke-linejoin="round" d="M -13.497415 -7.181586 C -13.497415 -7.181586 2.182128 4.636285 8.160914 6.296431 C 10.234072 6.866258 13.494483 7.179463 13.494483 7.179463 " stroke="#183944" stroke-width="5" stroke-opacity="1" stroke-miterlimit="4"/><path stroke-linecap="round" transform="matrix(0.71403, -0.000300979, 0.000300979, 0.71403, 699.129043, 78.241283)" fill="none" stroke-linejoin="round" d="M -1.839307 2.270836 C -1.839307 2.270836 0.224619 -1.213136 1.844394 -2.268301 " stroke="#183944" stroke-width="5" stroke-opacity="1" stroke-miterlimit="4"/><path stroke-linecap="round" transform="matrix(0.71403, -0.000300979, 0.000300979, 0.71403, 701.443027, 82.887217)" fill-opacity="1" fill="#f7e264" fill-rule="nonzero" stroke-linejoin="round" d="M -2.437574 1.989612 C -2.437574 1.989612 0.0803976 -1.439461 2.438506 -1.991009 " stroke="#183944" stroke-width="5" stroke-opacity="1" stroke-miterlimit="4"/><path stroke-linecap="butt" transform="matrix(0.71403, -0.000300979, 0.000300979, 0.71403, 715.45545, 258.036453)" fill-opacity="1" fill="#ef597a" fill-rule="nonzero" stroke-linejoin="miter" d="M -11.234288 -182.49301 C -11.234288 -182.49301 25.313596 -126.00894 21.298783 -49.770825 C 17.289441 26.467293 7.121209 100.027638 8.728189 116.347442 C 10.329701 132.661773 -5.182905 179.057792 -8.126935 180.927534 C -11.065496 182.802748 -13.207551 112.065571 -9.196289 57.22887 C -5.185027 2.392168 -2.935783 -51.378487 -6.597555 -85.883796 C -10.264795 -120.394577 -25.310292 -182.805303 -11.234288 -182.49301 Z M -11.234288 -182.49301 " stroke="#183944" stroke-width="5" stroke-opacity="1" stroke-miterlimit="10"/><path stroke-linecap="butt" transform="matrix(0.71403, -0.000300979, 0.000300979, 0.71403, 714.197538, 356.79305)" fill-opacity="1" fill="#f7e264" fill-rule="nonzero" stroke-linejoin="miter" d="M -6.898796 -6.846879 C -6.898796 -6.846879 -0.0528472 -37.764444 1.717522 -32.686879 C 3.203752 -28.408158 3.847152 -10.343604 4.008914 -4.747 C 4.025091 -4.188981 4.736188 -3.964382 5.075559 -4.407366 C 5.075559 -4.407366 8.365235 -8.629367 8.365235 -8.629367 C 8.748397 -9.132511 9.546968 -8.771108 9.420879 -8.1475 C 7.869479 -0.582163 2.952695 22.091856 -1.640001 28.665713 C -7.18517 36.590433 -9.549012 37.76564 -9.549012 37.76564 " stroke="#183944" stroke-width="5" stroke-opacity="1" stroke-miterlimit="10"/><path stroke-linecap="butt" transform="matrix(0.71403, -0.000300979, 0.000300979, 0.71403, 710.988594, 236.361805)" fill-opacity="1" fill="#70c484" fill-rule="nonzero" stroke-linejoin="miter" d="M -19.547861 -89.479626 C -8.695968 -45.813319 7.598742 38.070468 -3.222209 115.673392 C -6.432097 177.201109 -3.75381 208.75729 -3.75381 208.75729 C -3.75381 208.75729 15.957545 26.136903 17.215923 12.887375 C 21.996571 -37.244192 23.110478 -123.068214 11.366175 -152.133573 C 3.786209 -170.895831 -9.048527 -208.758551 -19.03749 -171.135222 C -26.13332 -144.419267 -26.216288 -116.310797 -19.547861 -89.479626 Z M -19.547861 -89.479626 " stroke="#183944" stroke-width="5" stroke-opacity="1" stroke-miterlimit="10"/><path fill="#f7e264" d="M 701.621094 104.195312 C 702.019531 103.78125 714.210938 81.359375 716.351562 82.882812 C 718.050781 84.085938 721.089844 120.988281 722.273438 136.199219 C 722.367188 137.414062 720.679688 137.824219 720.210938 136.695312 C 717.730469 130.703125 714.195312 121.554688 713.144531 115.777344 C 712.992188 114.941406 711.988281 114.59375 711.363281 115.167969 C 711.363281 115.167969 704.960938 121.042969 704.960938 121.042969 C 704.539062 121.433594 703.886719 121.421875 703.480469 121.015625 C 701.96875 119.503906 699.058594 114.972656 701.453125 103.742188 " fill-opacity="1" fill-rule="nonzero"/><g clip-path="url(#0d50a01399)"><path stroke-linecap="butt" transform="matrix(0.71403, -0.000300979, 0.000300979, 0.71403, 710.70741, 109.594452)" fill="none" stroke-linejoin="miter" d="M -12.722212 -7.566867 C -12.163955 -8.146526 4.923363 -39.541196 7.920412 -37.406356 C 10.29946 -35.720375 14.533886 15.963203 16.182531 37.266841 C 16.313111 38.968286 13.949523 39.541714 13.293704 37.960403 C 9.823342 29.566872 4.877751 16.752385 3.409541 8.660587 C 3.196677 7.489766 1.79091 7.00228 0.915258 7.806105 C 0.915258 7.806105 -8.054702 16.030271 -8.054702 16.030271 C -8.645769 16.577093 -9.55937 16.560296 -10.128084 15.991102 C -12.244356 13.873046 -16.317359 7.525306 -12.957185 -8.201568 " stroke="#183944" stroke-width="5" stroke-opacity="1" stroke-miterlimit="10"/></g><path stroke-linecap="butt" transform="matrix(0.71403, -0.000300979, 0.000300979, 0.71403, 681.652004, 265.169596)" fill-opacity="1" fill="#ef597a" fill-rule="nonzero" stroke-linejoin="miter" d="M -14.188377 150.600373 C -14.188377 150.600373 -14.907321 117.075562 -21.326593 83.192752 C -27.745865 49.309942 -38.447364 -91.57628 -38.091435 -118.322429 C -37.730034 -145.074046 -42.370665 -167.544207 -42.370665 -167.544207 C -42.370665 -167.544207 -43.499327 -176.500234 -24.613562 -178.576613 C -6.255752 -187.070358 -6.258402 -193.761037 -5.452066 -198.842986 C -4.6512 -203.924937 8.898775 -188.639534 9.414337 -178.781098 C 9.935367 -168.917189 34.995608 -75.505202 39.24416 -31.376668 C 43.498183 12.751868 37.34913 168.434728 37.34913 168.434728 C 37.34913 168.434728 34.582405 203.922054 -14.188377 150.600373 Z M -14.188377 150.600373 " stroke="#183944" stroke-width="5" stroke-opacity="1" stroke-miterlimit="10"/><path stroke-linecap="butt" transform="matrix(0.71403, -0.000300979, 0.000300979, 0.71403, 667.118421, 125.796342)" fill-opacity="1" fill="#f7e264" fill-rule="nonzero" stroke-linejoin="miter" d="M -3.698006 -43.492954 C -3.698006 -43.492954 -2.546808 -36.085128 -2.546808 -36.085128 C -2.186715 -33.776337 0.542728 -32.730281 2.354158 -34.212079 C 2.354158 -34.212079 12.412791 -42.441257 12.412791 -42.441257 C 14.070987 -43.797294 16.576254 -43.04128 17.209993 -40.994968 C 20.55351 -30.183436 22.58805 -2.889209 22.589426 6.826772 C 22.589925 18.621622 22.297199 38.190226 15.863646 38.187514 C 12.641396 38.191627 10.486972 35.73437 9.136745 33.271982 C 8.065307 31.323958 5.291699 31.224316 4.021725 33.050997 C 0.168015 38.58026 -5.918974 47.02447 -7.210061 47.023926 C -8.260437 47.023483 -9.002549 42.504364 -9.454897 38.423024 C -9.738309 35.895437 -12.806922 34.816414 -14.602073 36.61552 C -16.287766 38.31073 -19.181418 37.472491 -19.69468 35.136282 C -20.966906 29.325852 -22.587526 19.406773 -21.833669 9.040096 C -20.414021 -10.42409 -14.857113 -33.218194 -9.392642 -44.376138 C -8.094968 -47.023415 -4.150845 -46.409033 -3.698006 -43.492954 Z M -3.698006 -43.492954 " stroke="#183944" stroke-width="5" stroke-opacity="1" stroke-miterlimit="10"/><path stroke-linecap="butt" transform="matrix(0.71403, -0.000300979, 0.000300979, 0.71403, 692.149603, 366.615969)" fill-opacity="1" fill="#f7e264" fill-rule="nonzero" stroke-linejoin="miter" d="M -5.226327 26.351912 C -5.226327 26.351912 -21.336146 -15.954405 -15.460605 -15.951928 C -9.585064 -15.949452 6.936551 -3.141027 6.936551 -3.141027 C 6.936551 -3.141027 9.006314 -46.429879 13.181396 -48.638286 C 17.356479 -50.846693 21.335271 -2.697301 21.335271 -2.697301 C 21.335271 -2.697301 21.33728 31.472751 21.33728 31.472751 C 21.33728 31.472751 3.11165 50.847793 -5.226327 26.351912 Z M -5.226327 26.351912 " stroke="#183944" stroke-width="5" stroke-opacity="1" stroke-miterlimit="10"/><path stroke-linecap="butt" transform="matrix(0.71403, -0.000300979, 0.000300979, 0.71403, 702.158419, 401.140781)" fill-opacity="1" fill="#f7e264" fill-rule="nonzero" stroke-linejoin="miter" d="M -8.232056 -10.436331 C -8.232056 -10.436331 5.400257 -21.765895 8.541562 -24.417865 C 14.862483 -29.760084 19.873988 -43.533218 19.873988 -43.533218 C 19.873988 -43.533218 28.849438 0.110415 1.567729 24.361512 C -7.075898 37.115564 -12.959617 43.535696 -12.959617 43.535696 C -12.959617 43.535696 -28.845549 2.208731 -8.232056 -10.436331 Z M -8.232056 -10.436331 " stroke="#183944" stroke-width="5" stroke-opacity="1" stroke-miterlimit="10"/></svg>