<svg xmlns="http://www.w3.org/2000/svg" xmlns:xlink="http://www.w3.org/1999/xlink" width="1920" zoomAndPan="magnify" viewBox="0 0 1440 809.999993" height="1080" preserveAspectRatio="xMidYMid meet" version="1.0"><defs><clipPath id="3f01470269"><path d="M 642 0.75 L 841 0.75 L 841 406 L 642 406 Z M 642 0.75 " clip-rule="nonzero"/></clipPath><clipPath id="ef3c484acd"><path d="M 580.179688 34.5 L 580.179688 775.5 C 580.179688 794.554688 595.625 810 614.679688 810 L 945.546875 810 C 964.601562 810 980.046875 794.554688 980.046875 775.5 L 980.046875 34.5 C 980.046875 15.445312 964.601562 0 945.546875 0 L 614.679688 0 C 595.625 0 580.179688 15.445312 580.179688 34.5 Z M 580.179688 34.5 " clip-rule="nonzero"/></clipPath><clipPath id="404076cb83"><path d="M 615.578125 0.898438 L 944.648438 0.898438 C 963.699219 0.898438 979.148438 16.347656 979.148438 35.398438 L 979.148438 774.601562 C 979.148438 793.652344 963.699219 809.101562 944.648438 809.101562 L 615.578125 809.101562 C 596.523438 809.101562 581.078125 793.652344 581.078125 774.601562 L 581.078125 35.398438 C 581.078125 16.347656 596.523438 0.898438 615.578125 0.898438 Z M 615.578125 0.898438 " clip-rule="nonzero"/></clipPath><clipPath id="a07c271249"><path d="M 632 315 L 830 315 L 830 731 L 632 731 Z M 632 315 " clip-rule="nonzero"/></clipPath><clipPath id="7d2000ce91"><path d="M 580.179688 34.5 L 580.179688 775.5 C 580.179688 794.554688 595.625 810 614.679688 810 L 945.546875 810 C 964.601562 810 980.046875 794.554688 980.046875 775.5 L 980.046875 34.5 C 980.046875 15.445312 964.601562 0 945.546875 0 L 614.679688 0 C 595.625 0 580.179688 15.445312 580.179688 34.5 Z M 580.179688 34.5 " clip-rule="nonzero"/></clipPath><clipPath id="0075f127bf"><path d="M 615.578125 0.898438 L 944.648438 0.898438 C 963.699219 0.898438 979.148438 16.347656 979.148438 35.398438 L 979.148438 774.601562 C 979.148438 793.652344 963.699219 809.101562 944.648438 809.101562 L 615.578125 809.101562 C 596.523438 809.101562 581.078125 793.652344 581.078125 774.601562 L 581.078125 35.398438 C 581.078125 16.347656 596.523438 0.898438 615.578125 0.898438 Z M 615.578125 0.898438 " clip-rule="nonzero"/></clipPath><clipPath id="b1510da5e8"><path d="M 616 675 L 807 675 L 807 776 L 616 776 Z M 616 675 " clip-rule="nonzero"/></clipPath><clipPath id="8a81fc44e4"><path d="M 580.179688 34.5 L 580.179688 775.5 C 580.179688 794.554688 595.625 810 614.679688 810 L 945.546875 810 C 964.601562 810 980.046875 794.554688 980.046875 775.5 L 980.046875 34.5 C 980.046875 15.445312 964.601562 0 945.546875 0 L 614.679688 0 C 595.625 0 580.179688 15.445312 580.179688 34.5 Z M 580.179688 34.5 " clip-rule="nonzero"/></clipPath><clipPath id="3828461150"><path d="M 615.578125 0.898438 L 944.648438 0.898438 C 963.699219 0.898438 979.148438 16.347656 979.148438 35.398438 L 979.148438 774.601562 C 979.148438 793.652344 963.699219 809.101562 944.648438 809.101562 L 615.578125 809.101562 C 596.523438 809.101562 581.078125 793.652344 581.078125 774.601562 L 581.078125 35.398438 C 581.078125 16.347656 596.523438 0.898438 615.578125 0.898438 Z M 615.578125 0.898438 " clip-rule="nonzero"/></clipPath><clipPath id="9d84dc8ef3"><path d="M 657 399 L 789 399 L 789 722 L 657 722 Z M 657 399 " clip-rule="nonzero"/></clipPath><clipPath id="7d89004ce3"><path d="M 580.179688 34.5 L 580.179688 775.5 C 580.179688 794.554688 595.625 810 614.679688 810 L 945.546875 810 C 964.601562 810 980.046875 794.554688 980.046875 775.5 L 980.046875 34.5 C 980.046875 15.445312 964.601562 0 945.546875 0 L 614.679688 0 C 595.625 0 580.179688 15.445312 580.179688 34.5 Z M 580.179688 34.5 " clip-rule="nonzero"/></clipPath><clipPath id="d2d170b75d"><path d="M 615.578125 0.898438 L 944.648438 0.898438 C 963.699219 0.898438 979.148438 16.347656 979.148438 35.398438 L 979.148438 774.601562 C 979.148438 793.652344 963.699219 809.101562 944.648438 809.101562 L 615.578125 809.101562 C 596.523438 809.101562 581.078125 793.652344 581.078125 774.601562 L 581.078125 35.398438 C 581.078125 16.347656 596.523438 0.898438 615.578125 0.898438 Z M 615.578125 0.898438 " clip-rule="nonzero"/></clipPath><clipPath id="c26b2f61d5"><path d="M 604 346 L 842 346 L 842 775 L 604 775 Z M 604 346 " clip-rule="nonzero"/></clipPath><clipPath id="46bb8e6475"><path d="M 580.179688 34.5 L 580.179688 775.5 C 580.179688 794.554688 595.625 810 614.679688 810 L 945.546875 810 C 964.601562 810 980.046875 794.554688 980.046875 775.5 L 980.046875 34.5 C 980.046875 15.445312 964.601562 0 945.546875 0 L 614.679688 0 C 595.625 0 580.179688 15.445312 580.179688 34.5 Z M 580.179688 34.5 " clip-rule="nonzero"/></clipPath><clipPath id="0fdf6d9f0d"><path d="M 615.578125 0.898438 L 944.648438 0.898438 C 963.699219 0.898438 979.148438 16.347656 979.148438 35.398438 L 979.148438 774.601562 C 979.148438 793.652344 963.699219 809.101562 944.648438 809.101562 L 615.578125 809.101562 C 596.523438 809.101562 581.078125 793.652344 581.078125 774.601562 L 581.078125 35.398438 C 581.078125 16.347656 596.523438 0.898438 615.578125 0.898438 Z M 615.578125 0.898438 " clip-rule="nonzero"/></clipPath><clipPath id="efe868ed5f"><path d="M 630 467 L 789 467 L 789 742 L 630 742 Z M 630 467 " clip-rule="nonzero"/></clipPath><clipPath id="58e5b60501"><path d="M 580.179688 34.5 L 580.179688 775.5 C 580.179688 794.554688 595.625 810 614.679688 810 L 945.546875 810 C 964.601562 810 980.046875 794.554688 980.046875 775.5 L 980.046875 34.5 C 980.046875 15.445312 964.601562 0 945.546875 0 L 614.679688 0 C 595.625 0 580.179688 15.445312 580.179688 34.5 Z M 580.179688 34.5 " clip-rule="nonzero"/></clipPath><clipPath id="b37afa7923"><path d="M 615.578125 0.898438 L 944.648438 0.898438 C 963.699219 0.898438 979.148438 16.347656 979.148438 35.398438 L 979.148438 774.601562 C 979.148438 793.652344 963.699219 809.101562 944.648438 809.101562 L 615.578125 809.101562 C 596.523438 809.101562 581.078125 793.652344 581.078125 774.601562 L 581.078125 35.398438 C 581.078125 16.347656 596.523438 0.898438 615.578125 0.898438 Z M 615.578125 0.898438 " clip-rule="nonzero"/></clipPath><clipPath id="9a0a16b0fd"><path d="M 704 362 L 833 362 L 833 511 L 704 511 Z M 704 362 " clip-rule="nonzero"/></clipPath><clipPath id="5b3435a7e1"><path d="M 580.179688 34.5 L 580.179688 775.5 C 580.179688 794.554688 595.625 810 614.679688 810 L 945.546875 810 C 964.601562 810 980.046875 794.554688 980.046875 775.5 L 980.046875 34.5 C 980.046875 15.445312 964.601562 0 945.546875 0 L 614.679688 0 C 595.625 0 580.179688 15.445312 580.179688 34.5 Z M 580.179688 34.5 " clip-rule="nonzero"/></clipPath><clipPath id="a66eaa0f44"><path d="M 615.578125 0.898438 L 944.648438 0.898438 C 963.699219 0.898438 979.148438 16.347656 979.148438 35.398438 L 979.148438 774.601562 C 979.148438 793.652344 963.699219 809.101562 944.648438 809.101562 L 615.578125 809.101562 C 596.523438 809.101562 581.078125 793.652344 581.078125 774.601562 L 581.078125 35.398438 C 581.078125 16.347656 596.523438 0.898438 615.578125 0.898438 Z M 615.578125 0.898438 " clip-rule="nonzero"/></clipPath><clipPath id="d299193d7d"><path d="M 724 104 L 761 104 L 761 387 L 724 387 Z M 724 104 " clip-rule="nonzero"/></clipPath><clipPath id="09ceb0737e"><path d="M 580.179688 34.5 L 580.179688 775.5 C 580.179688 794.554688 595.625 810 614.679688 810 L 945.546875 810 C 964.601562 810 980.046875 794.554688 980.046875 775.5 L 980.046875 34.5 C 980.046875 15.445312 964.601562 0 945.546875 0 L 614.679688 0 C 595.625 0 580.179688 15.445312 580.179688 34.5 Z M 580.179688 34.5 " clip-rule="nonzero"/></clipPath><clipPath id="882cc4df8e"><path d="M 615.578125 0.898438 L 944.648438 0.898438 C 963.699219 0.898438 979.148438 16.347656 979.148438 35.398438 L 979.148438 774.601562 C 979.148438 793.652344 963.699219 809.101562 944.648438 809.101562 L 615.578125 809.101562 C 596.523438 809.101562 581.078125 793.652344 581.078125 774.601562 L 581.078125 35.398438 C 581.078125 16.347656 596.523438 0.898438 615.578125 0.898438 Z M 615.578125 0.898438 " clip-rule="nonzero"/></clipPath><clipPath id="fcd581a97d"><path d="M 671 51 L 814 51 L 814 440 L 671 440 Z M 671 51 " clip-rule="nonzero"/></clipPath><clipPath id="d52f7215e4"><path d="M 580.179688 34.5 L 580.179688 775.5 C 580.179688 794.554688 595.625 810 614.679688 810 L 945.546875 810 C 964.601562 810 980.046875 794.554688 980.046875 775.5 L 980.046875 34.5 C 980.046875 15.445312 964.601562 0 945.546875 0 L 614.679688 0 C 595.625 0 580.179688 15.445312 580.179688 34.5 Z M 580.179688 34.5 " clip-rule="nonzero"/></clipPath><clipPath id="6dae57f0c7"><path d="M 615.578125 0.898438 L 944.648438 0.898438 C 963.699219 0.898438 979.148438 16.347656 979.148438 35.398438 L 979.148438 774.601562 C 979.148438 793.652344 963.699219 809.101562 944.648438 809.101562 L 615.578125 809.101562 C 596.523438 809.101562 581.078125 793.652344 581.078125 774.601562 L 581.078125 35.398438 C 581.078125 16.347656 596.523438 0.898438 615.578125 0.898438 Z M 615.578125 0.898438 " clip-rule="nonzero"/></clipPath><clipPath id="e7e12786bc"><path d="M 706 103 L 757 103 L 757 399 L 706 399 Z M 706 103 " clip-rule="nonzero"/></clipPath><clipPath id="d4099c37f6"><path d="M 580.179688 34.5 L 580.179688 775.5 C 580.179688 794.554688 595.625 810 614.679688 810 L 945.546875 810 C 964.601562 810 980.046875 794.554688 980.046875 775.5 L 980.046875 34.5 C 980.046875 15.445312 964.601562 0 945.546875 0 L 614.679688 0 C 595.625 0 580.179688 15.445312 580.179688 34.5 Z M 580.179688 34.5 " clip-rule="nonzero"/></clipPath><clipPath id="5935d4ae24"><path d="M 615.578125 0.898438 L 944.648438 0.898438 C 963.699219 0.898438 979.148438 16.347656 979.148438 35.398438 L 979.148438 774.601562 C 979.148438 793.652344 963.699219 809.101562 944.648438 809.101562 L 615.578125 809.101562 C 596.523438 809.101562 581.078125 793.652344 581.078125 774.601562 L 581.078125 35.398438 C 581.078125 16.347656 596.523438 0.898438 615.578125 0.898438 Z M 615.578125 0.898438 " clip-rule="nonzero"/></clipPath><clipPath id="7e6127c68d"><path d="M 653 50 L 810 50 L 810 452 L 653 452 Z M 653 50 " clip-rule="nonzero"/></clipPath><clipPath id="810ec075d8"><path d="M 580.179688 34.5 L 580.179688 775.5 C 580.179688 794.554688 595.625 810 614.679688 810 L 945.546875 810 C 964.601562 810 980.046875 794.554688 980.046875 775.5 L 980.046875 34.5 C 980.046875 15.445312 964.601562 0 945.546875 0 L 614.679688 0 C 595.625 0 580.179688 15.445312 580.179688 34.5 Z M 580.179688 34.5 " clip-rule="nonzero"/></clipPath><clipPath id="0c689a908d"><path d="M 615.578125 0.898438 L 944.648438 0.898438 C 963.699219 0.898438 979.148438 16.347656 979.148438 35.398438 L 979.148438 774.601562 C 979.148438 793.652344 963.699219 809.101562 944.648438 809.101562 L 615.578125 809.101562 C 596.523438 809.101562 581.078125 793.652344 581.078125 774.601562 L 581.078125 35.398438 C 581.078125 16.347656 596.523438 0.898438 615.578125 0.898438 Z M 615.578125 0.898438 " clip-rule="nonzero"/></clipPath><clipPath id="fabaaca387"><path d="M 738 268 L 763 268 L 763 400 L 738 400 Z M 738 268 " clip-rule="nonzero"/></clipPath><clipPath id="3dba8a0296"><path d="M 580.179688 34.5 L 580.179688 775.5 C 580.179688 794.554688 595.625 810 614.679688 810 L 945.546875 810 C 964.601562 810 980.046875 794.554688 980.046875 775.5 L 980.046875 34.5 C 980.046875 15.445312 964.601562 0 945.546875 0 L 614.679688 0 C 595.625 0 580.179688 15.445312 580.179688 34.5 Z M 580.179688 34.5 " clip-rule="nonzero"/></clipPath><clipPath id="85c5a9068e"><path d="M 615.578125 0.898438 L 944.648438 0.898438 C 963.699219 0.898438 979.148438 16.347656 979.148438 35.398438 L 979.148438 774.601562 C 979.148438 793.652344 963.699219 809.101562 944.648438 809.101562 L 615.578125 809.101562 C 596.523438 809.101562 581.078125 793.652344 581.078125 774.601562 L 581.078125 35.398438 C 581.078125 16.347656 596.523438 0.898438 615.578125 0.898438 Z M 615.578125 0.898438 " clip-rule="nonzero"/></clipPath><clipPath id="1003eff2d6"><path d="M 685 215 L 816 215 L 816 453 L 685 453 Z M 685 215 " clip-rule="nonzero"/></clipPath><clipPath id="6b2e5ee922"><path d="M 580.179688 34.5 L 580.179688 775.5 C 580.179688 794.554688 595.625 810 614.679688 810 L 945.546875 810 C 964.601562 810 980.046875 794.554688 980.046875 775.5 L 980.046875 34.5 C 980.046875 15.445312 964.601562 0 945.546875 0 L 614.679688 0 C 595.625 0 580.179688 15.445312 580.179688 34.5 Z M 580.179688 34.5 " clip-rule="nonzero"/></clipPath><clipPath id="e75e8d5159"><path d="M 615.578125 0.898438 L 944.648438 0.898438 C 963.699219 0.898438 979.148438 16.347656 979.148438 35.398438 L 979.148438 774.601562 C 979.148438 793.652344 963.699219 809.101562 944.648438 809.101562 L 615.578125 809.101562 C 596.523438 809.101562 581.078125 793.652344 581.078125 774.601562 L 581.078125 35.398438 C 581.078125 16.347656 596.523438 0.898438 615.578125 0.898438 Z M 615.578125 0.898438 " clip-rule="nonzero"/></clipPath><clipPath id="36c06bef78"><path d="M 707 80 L 722 80 L 722 115 L 707 115 Z M 707 80 " clip-rule="nonzero"/></clipPath><clipPath id="0819c8a00a"><path d="M 580.179688 34.5 L 580.179688 775.5 C 580.179688 794.554688 595.625 810 614.679688 810 L 945.546875 810 C 964.601562 810 980.046875 794.554688 980.046875 775.5 L 980.046875 34.5 C 980.046875 15.445312 964.601562 0 945.546875 0 L 614.679688 0 C 595.625 0 580.179688 15.445312 580.179688 34.5 Z M 580.179688 34.5 " clip-rule="nonzero"/></clipPath><clipPath id="4a72e2adcd"><path d="M 615.578125 0.898438 L 944.648438 0.898438 C 963.699219 0.898438 979.148438 16.347656 979.148438 35.398438 L 979.148438 774.601562 C 979.148438 793.652344 963.699219 809.101562 944.648438 809.101562 L 615.578125 809.101562 C 596.523438 809.101562 581.078125 793.652344 581.078125 774.601562 L 581.078125 35.398438 C 581.078125 16.347656 596.523438 0.898438 615.578125 0.898438 Z M 615.578125 0.898438 " clip-rule="nonzero"/></clipPath><clipPath id="3e81d03b1b"><path d="M 705 78 L 724 78 L 724 117 L 705 117 Z M 705 78 " clip-rule="nonzero"/></clipPath><clipPath id="b2451d869b"><path d="M 580.179688 34.5 L 580.179688 775.5 C 580.179688 794.554688 595.625 810 614.679688 810 L 945.546875 810 C 964.601562 810 980.046875 794.554688 980.046875 775.5 L 980.046875 34.5 C 980.046875 15.445312 964.601562 0 945.546875 0 L 614.679688 0 C 595.625 0 580.179688 15.445312 580.179688 34.5 Z M 580.179688 34.5 " clip-rule="nonzero"/></clipPath><clipPath id="badebe6a2c"><path d="M 615.578125 0.898438 L 944.648438 0.898438 C 963.699219 0.898438 979.148438 16.347656 979.148438 35.398438 L 979.148438 774.601562 C 979.148438 793.652344 963.699219 809.101562 944.648438 809.101562 L 615.578125 809.101562 C 596.523438 809.101562 581.078125 793.652344 581.078125 774.601562 L 581.078125 35.398438 C 581.078125 16.347656 596.523438 0.898438 615.578125 0.898438 Z M 615.578125 0.898438 " clip-rule="nonzero"/></clipPath><clipPath id="3938bba13b"><path d="M 733 389 L 748 389 L 748 475 L 733 475 Z M 733 389 " clip-rule="nonzero"/></clipPath><clipPath id="0c070d0acc"><path d="M 580.179688 34.5 L 580.179688 775.5 C 580.179688 794.554688 595.625 810 614.679688 810 L 945.546875 810 C 964.601562 810 980.046875 794.554688 980.046875 775.5 L 980.046875 34.5 C 980.046875 15.445312 964.601562 0 945.546875 0 L 614.679688 0 C 595.625 0 580.179688 15.445312 580.179688 34.5 Z M 580.179688 34.5 " clip-rule="nonzero"/></clipPath><clipPath id="1b41948d68"><path d="M 615.578125 0.898438 L 944.648438 0.898438 C 963.699219 0.898438 979.148438 16.347656 979.148438 35.398438 L 979.148438 774.601562 C 979.148438 793.652344 963.699219 809.101562 944.648438 809.101562 L 615.578125 809.101562 C 596.523438 809.101562 581.078125 793.652344 581.078125 774.601562 L 581.078125 35.398438 C 581.078125 16.347656 596.523438 0.898438 615.578125 0.898438 Z M 615.578125 0.898438 " clip-rule="nonzero"/></clipPath><clipPath id="b03efce48a"><path d="M 731 387 L 750 387 L 750 477 L 731 477 Z M 731 387 " clip-rule="nonzero"/></clipPath><clipPath id="17f24424bf"><path d="M 580.179688 34.5 L 580.179688 775.5 C 580.179688 794.554688 595.625 810 614.679688 810 L 945.546875 810 C 964.601562 810 980.046875 794.554688 980.046875 775.5 L 980.046875 34.5 C 980.046875 15.445312 964.601562 0 945.546875 0 L 614.679688 0 C 595.625 0 580.179688 15.445312 580.179688 34.5 Z M 580.179688 34.5 " clip-rule="nonzero"/></clipPath><clipPath id="a6dc28261c"><path d="M 615.578125 0.898438 L 944.648438 0.898438 C 963.699219 0.898438 979.148438 16.347656 979.148438 35.398438 L 979.148438 774.601562 C 979.148438 793.652344 963.699219 809.101562 944.648438 809.101562 L 615.578125 809.101562 C 596.523438 809.101562 581.078125 793.652344 581.078125 774.601562 L 581.078125 35.398438 C 581.078125 16.347656 596.523438 0.898438 615.578125 0.898438 Z M 615.578125 0.898438 " clip-rule="nonzero"/></clipPath><clipPath id="3440d50791"><path d="M 681 43 L 688 43 L 688 50 L 681 50 Z M 681 43 " clip-rule="nonzero"/></clipPath><clipPath id="a54185bbe4"><path d="M 580.179688 34.5 L 580.179688 775.5 C 580.179688 794.554688 595.625 810 614.679688 810 L 945.546875 810 C 964.601562 810 980.046875 794.554688 980.046875 775.5 L 980.046875 34.5 C 980.046875 15.445312 964.601562 0 945.546875 0 L 614.679688 0 C 595.625 0 580.179688 15.445312 580.179688 34.5 Z M 580.179688 34.5 " clip-rule="nonzero"/></clipPath><clipPath id="ac63c7670b"><path d="M 615.578125 0.898438 L 944.648438 0.898438 C 963.699219 0.898438 979.148438 16.347656 979.148438 35.398438 L 979.148438 774.601562 C 979.148438 793.652344 963.699219 809.101562 944.648438 809.101562 L 615.578125 809.101562 C 596.523438 809.101562 581.078125 793.652344 581.078125 774.601562 L 581.078125 35.398438 C 581.078125 16.347656 596.523438 0.898438 615.578125 0.898438 Z M 615.578125 0.898438 " clip-rule="nonzero"/></clipPath><clipPath id="45facf724c"><path d="M 628 0.75 L 741 0.75 L 741 103 L 628 103 Z M 628 0.75 " clip-rule="nonzero"/></clipPath><clipPath id="8ab17651f9"><path d="M 580.179688 34.5 L 580.179688 775.5 C 580.179688 794.554688 595.625 810 614.679688 810 L 945.546875 810 C 964.601562 810 980.046875 794.554688 980.046875 775.5 L 980.046875 34.5 C 980.046875 15.445312 964.601562 0 945.546875 0 L 614.679688 0 C 595.625 0 580.179688 15.445312 580.179688 34.5 Z M 580.179688 34.5 " clip-rule="nonzero"/></clipPath><clipPath id="d0127184af"><path d="M 615.578125 0.898438 L 944.648438 0.898438 C 963.699219 0.898438 979.148438 16.347656 979.148438 35.398438 L 979.148438 774.601562 C 979.148438 793.652344 963.699219 809.101562 944.648438 809.101562 L 615.578125 809.101562 C 596.523438 809.101562 581.078125 793.652344 581.078125 774.601562 L 581.078125 35.398438 C 581.078125 16.347656 596.523438 0.898438 615.578125 0.898438 Z M 615.578125 0.898438 " clip-rule="nonzero"/></clipPath><clipPath id="33981916d5"><path d="M 665 0.75 L 713 0.75 L 713 42 L 665 42 Z M 665 0.75 " clip-rule="nonzero"/></clipPath><clipPath id="0046925bb1"><path d="M 580.179688 34.5 L 580.179688 775.5 C 580.179688 794.554688 595.625 810 614.679688 810 L 945.546875 810 C 964.601562 810 980.046875 794.554688 980.046875 775.5 L 980.046875 34.5 C 980.046875 15.445312 964.601562 0 945.546875 0 L 614.679688 0 C 595.625 0 580.179688 15.445312 580.179688 34.5 Z M 580.179688 34.5 " clip-rule="nonzero"/></clipPath><clipPath id="591d45cb48"><path d="M 615.578125 0.898438 L 944.648438 0.898438 C 963.699219 0.898438 979.148438 16.347656 979.148438 35.398438 L 979.148438 774.601562 C 979.148438 793.652344 963.699219 809.101562 944.648438 809.101562 L 615.578125 809.101562 C 596.523438 809.101562 581.078125 793.652344 581.078125 774.601562 L 581.078125 35.398438 C 581.078125 16.347656 596.523438 0.898438 615.578125 0.898438 Z M 615.578125 0.898438 " clip-rule="nonzero"/></clipPath><clipPath id="f257db63ab"><path d="M 612 0.75 L 766 0.75 L 766 95 L 612 95 Z M 612 0.75 " clip-rule="nonzero"/></clipPath><clipPath id="d4486ed5ee"><path d="M 580.179688 34.5 L 580.179688 775.5 C 580.179688 794.554688 595.625 810 614.679688 810 L 945.546875 810 C 964.601562 810 980.046875 794.554688 980.046875 775.5 L 980.046875 34.5 C 980.046875 15.445312 964.601562 0 945.546875 0 L 614.679688 0 C 595.625 0 580.179688 15.445312 580.179688 34.5 Z M 580.179688 34.5 " clip-rule="nonzero"/></clipPath><clipPath id="ce08d88aef"><path d="M 615.578125 0.898438 L 944.648438 0.898438 C 963.699219 0.898438 979.148438 16.347656 979.148438 35.398438 L 979.148438 774.601562 C 979.148438 793.652344 963.699219 809.101562 944.648438 809.101562 L 615.578125 809.101562 C 596.523438 809.101562 581.078125 793.652344 581.078125 774.601562 L 581.078125 35.398438 C 581.078125 16.347656 596.523438 0.898438 615.578125 0.898438 Z M 615.578125 0.898438 " clip-rule="nonzero"/></clipPath><clipPath id="06a4a69a1f"><path d="M 673 28 L 704 28 L 704 60 L 673 60 Z M 673 28 " clip-rule="nonzero"/></clipPath><clipPath id="3d52be0e86"><path d="M 580.179688 34.5 L 580.179688 775.5 C 580.179688 794.554688 595.625 810 614.679688 810 L 945.546875 810 C 964.601562 810 980.046875 794.554688 980.046875 775.5 L 980.046875 34.5 C 980.046875 15.445312 964.601562 0 945.546875 0 L 614.679688 0 C 595.625 0 580.179688 15.445312 580.179688 34.5 Z M 580.179688 34.5 " clip-rule="nonzero"/></clipPath><clipPath id="211bca8af1"><path d="M 615.578125 0.898438 L 944.648438 0.898438 C 963.699219 0.898438 979.148438 16.347656 979.148438 35.398438 L 979.148438 774.601562 C 979.148438 793.652344 963.699219 809.101562 944.648438 809.101562 L 615.578125 809.101562 C 596.523438 809.101562 581.078125 793.652344 581.078125 774.601562 L 581.078125 35.398438 C 581.078125 16.347656 596.523438 0.898438 615.578125 0.898438 Z M 615.578125 0.898438 " clip-rule="nonzero"/></clipPath><clipPath id="c117da3dbe"><path d="M 620 0.75 L 757 0.75 L 757 113 L 620 113 Z M 620 0.75 " clip-rule="nonzero"/></clipPath><clipPath id="c6b184ae6f"><path d="M 580.179688 34.5 L 580.179688 775.5 C 580.179688 794.554688 595.625 810 614.679688 810 L 945.546875 810 C 964.601562 810 980.046875 794.554688 980.046875 775.5 L 980.046875 34.5 C 980.046875 15.445312 964.601562 0 945.546875 0 L 614.679688 0 C 595.625 0 580.179688 15.445312 580.179688 34.5 Z M 580.179688 34.5 " clip-rule="nonzero"/></clipPath><clipPath id="c1d651bef9"><path d="M 615.578125 0.898438 L 944.648438 0.898438 C 963.699219 0.898438 979.148438 16.347656 979.148438 35.398438 L 979.148438 774.601562 C 979.148438 793.652344 963.699219 809.101562 944.648438 809.101562 L 615.578125 809.101562 C 596.523438 809.101562 581.078125 793.652344 581.078125 774.601562 L 581.078125 35.398438 C 581.078125 16.347656 596.523438 0.898438 615.578125 0.898438 Z M 615.578125 0.898438 " clip-rule="nonzero"/></clipPath><clipPath id="a9d95fc645"><path d="M 676 18 L 678 18 L 678 25 L 676 25 Z M 676 18 " clip-rule="nonzero"/></clipPath><clipPath id="6acbd7c098"><path d="M 580.179688 34.5 L 580.179688 775.5 C 580.179688 794.554688 595.625 810 614.679688 810 L 945.546875 810 C 964.601562 810 980.046875 794.554688 980.046875 775.5 L 980.046875 34.5 C 980.046875 15.445312 964.601562 0 945.546875 0 L 614.679688 0 C 595.625 0 580.179688 15.445312 580.179688 34.5 Z M 580.179688 34.5 " clip-rule="nonzero"/></clipPath><clipPath id="cbbac8dc37"><path d="M 615.578125 0.898438 L 944.648438 0.898438 C 963.699219 0.898438 979.148438 16.347656 979.148438 35.398438 L 979.148438 774.601562 C 979.148438 793.652344 963.699219 809.101562 944.648438 809.101562 L 615.578125 809.101562 C 596.523438 809.101562 581.078125 793.652344 581.078125 774.601562 L 581.078125 35.398438 C 581.078125 16.347656 596.523438 0.898438 615.578125 0.898438 Z M 615.578125 0.898438 " clip-rule="nonzero"/></clipPath><clipPath id="185e28fe82"><path d="M 623 0.75 L 731 0.75 L 731 78 L 623 78 Z M 623 0.75 " clip-rule="nonzero"/></clipPath><clipPath id="f490805239"><path d="M 580.179688 34.5 L 580.179688 775.5 C 580.179688 794.554688 595.625 810 614.679688 810 L 945.546875 810 C 964.601562 810 980.046875 794.554688 980.046875 775.5 L 980.046875 34.5 C 980.046875 15.445312 964.601562 0 945.546875 0 L 614.679688 0 C 595.625 0 580.179688 15.445312 580.179688 34.5 Z M 580.179688 34.5 " clip-rule="nonzero"/></clipPath><clipPath id="09f1f6511c"><path d="M 615.578125 0.898438 L 944.648438 0.898438 C 963.699219 0.898438 979.148438 16.347656 979.148438 35.398438 L 979.148438 774.601562 C 979.148438 793.652344 963.699219 809.101562 944.648438 809.101562 L 615.578125 809.101562 C 596.523438 809.101562 581.078125 793.652344 581.078125 774.601562 L 581.078125 35.398438 C 581.078125 16.347656 596.523438 0.898438 615.578125 0.898438 Z M 615.578125 0.898438 " clip-rule="nonzero"/></clipPath><clipPath id="aa2ab23df2"><path d="M 674 3 L 678 3 L 678 12 L 674 12 Z M 674 3 " clip-rule="nonzero"/></clipPath><clipPath id="ac492134cd"><path d="M 580.179688 34.5 L 580.179688 775.5 C 580.179688 794.554688 595.625 810 614.679688 810 L 945.546875 810 C 964.601562 810 980.046875 794.554688 980.046875 775.5 L 980.046875 34.5 C 980.046875 15.445312 964.601562 0 945.546875 0 L 614.679688 0 C 595.625 0 580.179688 15.445312 580.179688 34.5 Z M 580.179688 34.5 " clip-rule="nonzero"/></clipPath><clipPath id="9b8172a530"><path d="M 615.578125 0.898438 L 944.648438 0.898438 C 963.699219 0.898438 979.148438 16.347656 979.148438 35.398438 L 979.148438 774.601562 C 979.148438 793.652344 963.699219 809.101562 944.648438 809.101562 L 615.578125 809.101562 C 596.523438 809.101562 581.078125 793.652344 581.078125 774.601562 L 581.078125 35.398438 C 581.078125 16.347656 596.523438 0.898438 615.578125 0.898438 Z M 615.578125 0.898438 " clip-rule="nonzero"/></clipPath><clipPath id="5d6220aae6"><path d="M 621 0.75 L 731 0.75 L 731 65 L 621 65 Z M 621 0.75 " clip-rule="nonzero"/></clipPath><clipPath id="fb3ac3cd1a"><path d="M 580.179688 34.5 L 580.179688 775.5 C 580.179688 794.554688 595.625 810 614.679688 810 L 945.546875 810 C 964.601562 810 980.046875 794.554688 980.046875 775.5 L 980.046875 34.5 C 980.046875 15.445312 964.601562 0 945.546875 0 L 614.679688 0 C 595.625 0 580.179688 15.445312 580.179688 34.5 Z M 580.179688 34.5 " clip-rule="nonzero"/></clipPath><clipPath id="27de479328"><path d="M 615.578125 0.898438 L 944.648438 0.898438 C 963.699219 0.898438 979.148438 16.347656 979.148438 35.398438 L 979.148438 774.601562 C 979.148438 793.652344 963.699219 809.101562 944.648438 809.101562 L 615.578125 809.101562 C 596.523438 809.101562 581.078125 793.652344 581.078125 774.601562 L 581.078125 35.398438 C 581.078125 16.347656 596.523438 0.898438 615.578125 0.898438 Z M 615.578125 0.898438 " clip-rule="nonzero"/></clipPath><clipPath id="26495901fb"><path d="M 625 0.75 L 735 0.75 L 735 53 L 625 53 Z M 625 0.75 " clip-rule="nonzero"/></clipPath><clipPath id="3534fb7a51"><path d="M 580.179688 34.5 L 580.179688 775.5 C 580.179688 794.554688 595.625 810 614.679688 810 L 945.546875 810 C 964.601562 810 980.046875 794.554688 980.046875 775.5 L 980.046875 34.5 C 980.046875 15.445312 964.601562 0 945.546875 0 L 614.679688 0 C 595.625 0 580.179688 15.445312 580.179688 34.5 Z M 580.179688 34.5 " clip-rule="nonzero"/></clipPath><clipPath id="f51d35c306"><path d="M 615.578125 0.898438 L 944.648438 0.898438 C 963.699219 0.898438 979.148438 16.347656 979.148438 35.398438 L 979.148438 774.601562 C 979.148438 793.652344 963.699219 809.101562 944.648438 809.101562 L 615.578125 809.101562 C 596.523438 809.101562 581.078125 793.652344 581.078125 774.601562 L 581.078125 35.398438 C 581.078125 16.347656 596.523438 0.898438 615.578125 0.898438 Z M 615.578125 0.898438 " clip-rule="nonzero"/></clipPath><clipPath id="52e7f3cb95"><path d="M 638 0.75 L 783 0.75 L 783 50 L 638 50 Z M 638 0.75 " clip-rule="nonzero"/></clipPath><clipPath id="ef4e634b85"><path d="M 580.179688 34.5 L 580.179688 775.5 C 580.179688 794.554688 595.625 810 614.679688 810 L 945.546875 810 C 964.601562 810 980.046875 794.554688 980.046875 775.5 L 980.046875 34.5 C 980.046875 15.445312 964.601562 0 945.546875 0 L 614.679688 0 C 595.625 0 580.179688 15.445312 580.179688 34.5 Z M 580.179688 34.5 " clip-rule="nonzero"/></clipPath><clipPath id="4bf5fa7460"><path d="M 615.578125 0.898438 L 944.648438 0.898438 C 963.699219 0.898438 979.148438 16.347656 979.148438 35.398438 L 979.148438 774.601562 C 979.148438 793.652344 963.699219 809.101562 944.648438 809.101562 L 615.578125 809.101562 C 596.523438 809.101562 581.078125 793.652344 581.078125 774.601562 L 581.078125 35.398438 C 581.078125 16.347656 596.523438 0.898438 615.578125 0.898438 Z M 615.578125 0.898438 " clip-rule="nonzero"/></clipPath><clipPath id="21c8d5f552"><path d="M 688 0.75 L 787 0.75 L 787 89 L 688 89 Z M 688 0.75 " clip-rule="nonzero"/></clipPath><clipPath id="8d4b142227"><path d="M 580.179688 34.5 L 580.179688 775.5 C 580.179688 794.554688 595.625 810 614.679688 810 L 945.546875 810 C 964.601562 810 980.046875 794.554688 980.046875 775.5 L 980.046875 34.5 C 980.046875 15.445312 964.601562 0 945.546875 0 L 614.679688 0 C 595.625 0 580.179688 15.445312 580.179688 34.5 Z M 580.179688 34.5 " clip-rule="nonzero"/></clipPath><clipPath id="0ee45519dc"><path d="M 615.578125 0.898438 L 944.648438 0.898438 C 963.699219 0.898438 979.148438 16.347656 979.148438 35.398438 L 979.148438 774.601562 C 979.148438 793.652344 963.699219 809.101562 944.648438 809.101562 L 615.578125 809.101562 C 596.523438 809.101562 581.078125 793.652344 581.078125 774.601562 L 581.078125 35.398438 C 581.078125 16.347656 596.523438 0.898438 615.578125 0.898438 Z M 615.578125 0.898438 " clip-rule="nonzero"/></clipPath><clipPath id="1de0517378"><path d="M 635 0.75 L 840 0.75 L 840 142 L 635 142 Z M 635 0.75 " clip-rule="nonzero"/></clipPath><clipPath id="67de949537"><path d="M 580.179688 34.5 L 580.179688 775.5 C 580.179688 794.554688 595.625 810 614.679688 810 L 945.546875 810 C 964.601562 810 980.046875 794.554688 980.046875 775.5 L 980.046875 34.5 C 980.046875 15.445312 964.601562 0 945.546875 0 L 614.679688 0 C 595.625 0 580.179688 15.445312 580.179688 34.5 Z M 580.179688 34.5 " clip-rule="nonzero"/></clipPath><clipPath id="28066624a4"><path d="M 615.578125 0.898438 L 944.648438 0.898438 C 963.699219 0.898438 979.148438 16.347656 979.148438 35.398438 L 979.148438 774.601562 C 979.148438 793.652344 963.699219 809.101562 944.648438 809.101562 L 615.578125 809.101562 C 596.523438 809.101562 581.078125 793.652344 581.078125 774.601562 L 581.078125 35.398438 C 581.078125 16.347656 596.523438 0.898438 615.578125 0.898438 Z M 615.578125 0.898438 " clip-rule="nonzero"/></clipPath><clipPath id="0b3b48c596"><path d="M 677 0.75 L 810 0.75 L 810 99 L 677 99 Z M 677 0.75 " clip-rule="nonzero"/></clipPath><clipPath id="f1cd84c4af"><path d="M 580.179688 34.5 L 580.179688 775.5 C 580.179688 794.554688 595.625 810 614.679688 810 L 945.546875 810 C 964.601562 810 980.046875 794.554688 980.046875 775.5 L 980.046875 34.5 C 980.046875 15.445312 964.601562 0 945.546875 0 L 614.679688 0 C 595.625 0 580.179688 15.445312 580.179688 34.5 Z M 580.179688 34.5 " clip-rule="nonzero"/></clipPath><clipPath id="df0094d885"><path d="M 615.578125 0.898438 L 944.648438 0.898438 C 963.699219 0.898438 979.148438 16.347656 979.148438 35.398438 L 979.148438 774.601562 C 979.148438 793.652344 963.699219 809.101562 944.648438 809.101562 L 615.578125 809.101562 C 596.523438 809.101562 581.078125 793.652344 581.078125 774.601562 L 581.078125 35.398438 C 581.078125 16.347656 596.523438 0.898438 615.578125 0.898438 Z M 615.578125 0.898438 " clip-rule="nonzero"/></clipPath><clipPath id="5e855a8287"><path d="M 728 16 L 768 16 L 768 53 L 728 53 Z M 728 16 " clip-rule="nonzero"/></clipPath><clipPath id="4992cf6668"><path d="M 580.179688 34.5 L 580.179688 775.5 C 580.179688 794.554688 595.625 810 614.679688 810 L 945.546875 810 C 964.601562 810 980.046875 794.554688 980.046875 775.5 L 980.046875 34.5 C 980.046875 15.445312 964.601562 0 945.546875 0 L 614.679688 0 C 595.625 0 580.179688 15.445312 580.179688 34.5 Z M 580.179688 34.5 " clip-rule="nonzero"/></clipPath><clipPath id="aaa25761db"><path d="M 615.578125 0.898438 L 944.648438 0.898438 C 963.699219 0.898438 979.148438 16.347656 979.148438 35.398438 L 979.148438 774.601562 C 979.148438 793.652344 963.699219 809.101562 944.648438 809.101562 L 615.578125 809.101562 C 596.523438 809.101562 581.078125 793.652344 581.078125 774.601562 L 581.078125 35.398438 C 581.078125 16.347656 596.523438 0.898438 615.578125 0.898438 Z M 615.578125 0.898438 " clip-rule="nonzero"/></clipPath><clipPath id="d799dfb0a6"><path d="M 675 0.75 L 821 0.75 L 821 106 L 675 106 Z M 675 0.75 " clip-rule="nonzero"/></clipPath><clipPath id="356ee4520d"><path d="M 580.179688 34.5 L 580.179688 775.5 C 580.179688 794.554688 595.625 810 614.679688 810 L 945.546875 810 C 964.601562 810 980.046875 794.554688 980.046875 775.5 L 980.046875 34.5 C 980.046875 15.445312 964.601562 0 945.546875 0 L 614.679688 0 C 595.625 0 580.179688 15.445312 580.179688 34.5 Z M 580.179688 34.5 " clip-rule="nonzero"/></clipPath><clipPath id="09cacafaf4"><path d="M 615.578125 0.898438 L 944.648438 0.898438 C 963.699219 0.898438 979.148438 16.347656 979.148438 35.398438 L 979.148438 774.601562 C 979.148438 793.652344 963.699219 809.101562 944.648438 809.101562 L 615.578125 809.101562 C 596.523438 809.101562 581.078125 793.652344 581.078125 774.601562 L 581.078125 35.398438 C 581.078125 16.347656 596.523438 0.898438 615.578125 0.898438 Z M 615.578125 0.898438 " clip-rule="nonzero"/></clipPath><clipPath id="df695b10fc"><path d="M 721 40 L 800 40 L 800 409 L 721 409 Z M 721 40 " clip-rule="nonzero"/></clipPath><clipPath id="e922efcc46"><path d="M 580.179688 34.5 L 580.179688 775.5 C 580.179688 794.554688 595.625 810 614.679688 810 L 945.546875 810 C 964.601562 810 980.046875 794.554688 980.046875 775.5 L 980.046875 34.5 C 980.046875 15.445312 964.601562 0 945.546875 0 L 614.679688 0 C 595.625 0 580.179688 15.445312 580.179688 34.5 Z M 580.179688 34.5 " clip-rule="nonzero"/></clipPath><clipPath id="eadf13dfaa"><path d="M 615.578125 0.898438 L 944.648438 0.898438 C 963.699219 0.898438 979.148438 16.347656 979.148438 35.398438 L 979.148438 774.601562 C 979.148438 793.652344 963.699219 809.101562 944.648438 809.101562 L 615.578125 809.101562 C 596.523438 809.101562 581.078125 793.652344 581.078125 774.601562 L 581.078125 35.398438 C 581.078125 16.347656 596.523438 0.898438 615.578125 0.898438 Z M 615.578125 0.898438 " clip-rule="nonzero"/></clipPath><clipPath id="503b33a16b"><path d="M 668 0.75 L 853 0.75 L 853 462 L 668 462 Z M 668 0.75 " clip-rule="nonzero"/></clipPath><clipPath id="83ee774c13"><path d="M 580.179688 34.5 L 580.179688 775.5 C 580.179688 794.554688 595.625 810 614.679688 810 L 945.546875 810 C 964.601562 810 980.046875 794.554688 980.046875 775.5 L 980.046875 34.5 C 980.046875 15.445312 964.601562 0 945.546875 0 L 614.679688 0 C 595.625 0 580.179688 15.445312 580.179688 34.5 Z M 580.179688 34.5 " clip-rule="nonzero"/></clipPath><clipPath id="930ed27350"><path d="M 615.578125 0.898438 L 944.648438 0.898438 C 963.699219 0.898438 979.148438 16.347656 979.148438 35.398438 L 979.148438 774.601562 C 979.148438 793.652344 963.699219 809.101562 944.648438 809.101562 L 615.578125 809.101562 C 596.523438 809.101562 581.078125 793.652344 581.078125 774.601562 L 581.078125 35.398438 C 581.078125 16.347656 596.523438 0.898438 615.578125 0.898438 Z M 615.578125 0.898438 " clip-rule="nonzero"/></clipPath><clipPath id="efa3fd7549"><path d="M 745 42 L 754 42 L 754 70 L 745 70 Z M 745 42 " clip-rule="nonzero"/></clipPath><clipPath id="c56e94be2c"><path d="M 580.179688 34.5 L 580.179688 775.5 C 580.179688 794.554688 595.625 810 614.679688 810 L 945.546875 810 C 964.601562 810 980.046875 794.554688 980.046875 775.5 L 980.046875 34.5 C 980.046875 15.445312 964.601562 0 945.546875 0 L 614.679688 0 C 595.625 0 580.179688 15.445312 580.179688 34.5 Z M 580.179688 34.5 " clip-rule="nonzero"/></clipPath><clipPath id="48f0a73026"><path d="M 615.578125 0.898438 L 944.648438 0.898438 C 963.699219 0.898438 979.148438 16.347656 979.148438 35.398438 L 979.148438 774.601562 C 979.148438 793.652344 963.699219 809.101562 944.648438 809.101562 L 615.578125 809.101562 C 596.523438 809.101562 581.078125 793.652344 581.078125 774.601562 L 581.078125 35.398438 C 581.078125 16.347656 596.523438 0.898438 615.578125 0.898438 Z M 615.578125 0.898438 " clip-rule="nonzero"/></clipPath><clipPath id="5ae29792aa"><path d="M 747 389 L 780 389 L 780 405 L 747 405 Z M 747 389 " clip-rule="nonzero"/></clipPath><clipPath id="989445d29d"><path d="M 580.179688 34.5 L 580.179688 775.5 C 580.179688 794.554688 595.625 810 614.679688 810 L 945.546875 810 C 964.601562 810 980.046875 794.554688 980.046875 775.5 L 980.046875 34.5 C 980.046875 15.445312 964.601562 0 945.546875 0 L 614.679688 0 C 595.625 0 580.179688 15.445312 580.179688 34.5 Z M 580.179688 34.5 " clip-rule="nonzero"/></clipPath><clipPath id="a794152d80"><path d="M 615.578125 0.898438 L 944.648438 0.898438 C 963.699219 0.898438 979.148438 16.347656 979.148438 35.398438 L 979.148438 774.601562 C 979.148438 793.652344 963.699219 809.101562 944.648438 809.101562 L 615.578125 809.101562 C 596.523438 809.101562 581.078125 793.652344 581.078125 774.601562 L 581.078125 35.398438 C 581.078125 16.347656 596.523438 0.898438 615.578125 0.898438 Z M 615.578125 0.898438 " clip-rule="nonzero"/></clipPath><clipPath id="5f301a25b1"><path d="M 693 336 L 833 336 L 833 458 L 693 458 Z M 693 336 " clip-rule="nonzero"/></clipPath><clipPath id="289a88d0dc"><path d="M 580.179688 34.5 L 580.179688 775.5 C 580.179688 794.554688 595.625 810 614.679688 810 L 945.546875 810 C 964.601562 810 980.046875 794.554688 980.046875 775.5 L 980.046875 34.5 C 980.046875 15.445312 964.601562 0 945.546875 0 L 614.679688 0 C 595.625 0 580.179688 15.445312 580.179688 34.5 Z M 580.179688 34.5 " clip-rule="nonzero"/></clipPath><clipPath id="70a2ad2ada"><path d="M 615.578125 0.898438 L 944.648438 0.898438 C 963.699219 0.898438 979.148438 16.347656 979.148438 35.398438 L 979.148438 774.601562 C 979.148438 793.652344 963.699219 809.101562 944.648438 809.101562 L 615.578125 809.101562 C 596.523438 809.101562 581.078125 793.652344 581.078125 774.601562 L 581.078125 35.398438 C 581.078125 16.347656 596.523438 0.898438 615.578125 0.898438 Z M 615.578125 0.898438 " clip-rule="nonzero"/></clipPath><clipPath id="3160faeefd"><path d="M 727 63 L 753 63 L 753 77 L 727 77 Z M 727 63 " clip-rule="nonzero"/></clipPath><clipPath id="e32d6c2e00"><path d="M 580.179688 34.5 L 580.179688 775.5 C 580.179688 794.554688 595.625 810 614.679688 810 L 945.546875 810 C 964.601562 810 980.046875 794.554688 980.046875 775.5 L 980.046875 34.5 C 980.046875 15.445312 964.601562 0 945.546875 0 L 614.679688 0 C 595.625 0 580.179688 15.445312 580.179688 34.5 Z M 580.179688 34.5 " clip-rule="nonzero"/></clipPath><clipPath id="bdbed62ed3"><path d="M 615.578125 0.898438 L 944.648438 0.898438 C 963.699219 0.898438 979.148438 16.347656 979.148438 35.398438 L 979.148438 774.601562 C 979.148438 793.652344 963.699219 809.101562 944.648438 809.101562 L 615.578125 809.101562 C 596.523438 809.101562 581.078125 793.652344 581.078125 774.601562 L 581.078125 35.398438 C 581.078125 16.347656 596.523438 0.898438 615.578125 0.898438 Z M 615.578125 0.898438 " clip-rule="nonzero"/></clipPath><clipPath id="fdf57c1ae1"><path d="M 754 36 L 761 36 L 761 45 L 754 45 Z M 754 36 " clip-rule="nonzero"/></clipPath><clipPath id="f00b0e9554"><path d="M 580.179688 34.5 L 580.179688 775.5 C 580.179688 794.554688 595.625 810 614.679688 810 L 945.546875 810 C 964.601562 810 980.046875 794.554688 980.046875 775.5 L 980.046875 34.5 C 980.046875 15.445312 964.601562 0 945.546875 0 L 614.679688 0 C 595.625 0 580.179688 15.445312 580.179688 34.5 Z M 580.179688 34.5 " clip-rule="nonzero"/></clipPath><clipPath id="f30c14ee44"><path d="M 615.578125 0.898438 L 944.648438 0.898438 C 963.699219 0.898438 979.148438 16.347656 979.148438 35.398438 L 979.148438 774.601562 C 979.148438 793.652344 963.699219 809.101562 944.648438 809.101562 L 615.578125 809.101562 C 596.523438 809.101562 581.078125 793.652344 581.078125 774.601562 L 581.078125 35.398438 C 581.078125 16.347656 596.523438 0.898438 615.578125 0.898438 Z M 615.578125 0.898438 " clip-rule="nonzero"/></clipPath><clipPath id="dcec9a7b28"><path d="M 758 43 L 762 43 L 762 47 L 758 47 Z M 758 43 " clip-rule="nonzero"/></clipPath><clipPath id="cb58b7d455"><path d="M 580.179688 34.5 L 580.179688 775.5 C 580.179688 794.554688 595.625 810 614.679688 810 L 945.546875 810 C 964.601562 810 980.046875 794.554688 980.046875 775.5 L 980.046875 34.5 C 980.046875 15.445312 964.601562 0 945.546875 0 L 614.679688 0 C 595.625 0 580.179688 15.445312 580.179688 34.5 Z M 580.179688 34.5 " clip-rule="nonzero"/></clipPath><clipPath id="fbc8b75018"><path d="M 615.578125 0.898438 L 944.648438 0.898438 C 963.699219 0.898438 979.148438 16.347656 979.148438 35.398438 L 979.148438 774.601562 C 979.148438 793.652344 963.699219 809.101562 944.648438 809.101562 L 615.578125 809.101562 C 596.523438 809.101562 581.078125 793.652344 581.078125 774.601562 L 581.078125 35.398438 C 581.078125 16.347656 596.523438 0.898438 615.578125 0.898438 Z M 615.578125 0.898438 " clip-rule="nonzero"/></clipPath><clipPath id="cbbf0b79d1"><path d="M 756 41 L 764 41 L 764 49 L 756 49 Z M 756 41 " clip-rule="nonzero"/></clipPath><clipPath id="eefcbdd23c"><path d="M 580.179688 34.5 L 580.179688 775.5 C 580.179688 794.554688 595.625 810 614.679688 810 L 945.546875 810 C 964.601562 810 980.046875 794.554688 980.046875 775.5 L 980.046875 34.5 C 980.046875 15.445312 964.601562 0 945.546875 0 L 614.679688 0 C 595.625 0 580.179688 15.445312 580.179688 34.5 Z M 580.179688 34.5 " clip-rule="nonzero"/></clipPath><clipPath id="96c9c6bc2a"><path d="M 615.578125 0.898438 L 944.648438 0.898438 C 963.699219 0.898438 979.148438 16.347656 979.148438 35.398438 L 979.148438 774.601562 C 979.148438 793.652344 963.699219 809.101562 944.648438 809.101562 L 615.578125 809.101562 C 596.523438 809.101562 581.078125 793.652344 581.078125 774.601562 L 581.078125 35.398438 C 581.078125 16.347656 596.523438 0.898438 615.578125 0.898438 Z M 615.578125 0.898438 " clip-rule="nonzero"/></clipPath><clipPath id="0eba11daf7"><path d="M 580.179688 0 L 979.929688 0 L 979.929688 810 L 580.179688 810 Z M 580.179688 0 " clip-rule="nonzero"/></clipPath><clipPath id="2e70dd8168"><path d="M 580.179688 34.5 L 580.179688 775.5 C 580.179688 794.554688 595.625 810 614.679688 810 L 945.546875 810 C 964.601562 810 980.046875 794.554688 980.046875 775.5 L 980.046875 34.5 C 980.046875 15.445312 964.601562 0 945.546875 0 L 614.679688 0 C 595.625 0 580.179688 15.445312 580.179688 34.5 Z M 580.179688 34.5 " clip-rule="nonzero"/></clipPath><clipPath id="8a99513891"><path d="M 580.179688 34.5 L 580.179688 775.5 C 580.179688 794.554688 595.625 810 614.675781 810 L 945.546875 810 C 964.597656 810 980.046875 794.554688 980.046875 775.5 L 980.046875 34.5 C 980.046875 15.445312 964.597656 0 945.546875 0 L 614.675781 0 C 595.625 0 580.179688 15.445312 580.179688 34.5 Z M 580.179688 34.5 " clip-rule="nonzero"/></clipPath></defs><g clip-path="url(#3f01470269)"><g clip-path="url(#ef3c484acd)"><g clip-path="url(#404076cb83)"><path fill="#5e9adf" d="M 732.707031 377.863281 C 732.707031 377.863281 684.027344 245.703125 676.453125 131.210938 C 653.714844 88.386719 619.921875 49.511719 664.796875 -3.207031 C 664.796875 -3.207031 802.601562 -21.304688 802.601562 -21.304688 C 802.601562 -21.304688 868.113281 244.839844 825.882812 351.800781 C 821.234375 419.753906 736.570312 416.171875 732.707031 377.863281 Z M 732.707031 377.863281 " fill-opacity="1" fill-rule="nonzero"/></g></g></g><g clip-path="url(#a07c271249)"><g clip-path="url(#7d2000ce91)"><g clip-path="url(#0075f127bf)"><path fill="#5e9adf" d="M 733.882812 332.59375 C 733.882812 332.59375 735.277344 360.664062 698.230469 409.835938 C 689.707031 421.148438 655.882812 489.695312 657.777344 551.875 C 659.667969 614.058594 632.832031 685.417969 632.832031 685.417969 C 632.832031 685.417969 629.449219 726.902344 672.023438 730.191406 C 687.503906 731.386719 706.753906 702.097656 705.851562 681.710938 C 705.851562 681.710938 796.679688 427.40625 796.679688 427.40625 C 796.679688 427.40625 854.796875 369.117188 815.671875 329.707031 C 796.5 310.398438 745.277344 311.246094 733.882812 332.59375 Z M 733.882812 332.59375 " fill-opacity="1" fill-rule="nonzero"/></g></g></g><g clip-path="url(#b1510da5e8)"><g clip-path="url(#8a81fc44e4)"><g clip-path="url(#3828461150)"><path fill="#5e9adf" d="M 695.257812 681.882812 C 699.605469 688.910156 704.558594 695.703125 710.019531 701.902344 C 719.804688 713.011719 733.246094 720.824219 745.160156 729.429688 C 747.179688 730.890625 749.203125 732.351562 751.222656 733.808594 C 753.183594 735.226562 755.152344 736.648438 757.277344 737.800781 C 760.546875 739.570312 764.132812 740.675781 767.6875 741.769531 C 776.441406 744.460938 785.476562 747.183594 794.589844 746.285156 C 798.691406 745.878906 805.898438 744.363281 806.738281 750.378906 C 806.835938 751.097656 806.695312 751.824219 806.546875 752.535156 C 806.085938 754.691406 805.46875 756.914062 803.976562 758.539062 C 803.136719 759.457031 802.0625 760.125 801.007812 760.785156 C 794.246094 764.992188 787.53125 769.503906 780.300781 772.84375 C 776.492188 774.601562 772.253906 775.1875 768.074219 775.519531 C 755.445312 776.519531 742.65625 775.351562 730.410156 772.132812 C 725 770.710938 718.996094 767.191406 713.519531 766.886719 C 709.804688 766.679688 705.460938 766.839844 701.894531 768.074219 C 701.894531 768.074219 633.6875 781.144531 624.417969 766.886719 C 615.148438 752.625 610.394531 730.402344 630.359375 695.40625 C 650.324219 660.410156 695.257812 681.882812 695.257812 681.882812 Z M 695.257812 681.882812 " fill-opacity="1" fill-rule="nonzero"/></g></g></g><g clip-path="url(#9d84dc8ef3)"><g clip-path="url(#7d89004ce3)"><g clip-path="url(#d2d170b75d)"><path fill="#f7e264" d="M 752.59375 423.683594 C 751.777344 423.109375 744.40625 398.714844 753.265625 399.851562 C 762.125 400.992188 774.214844 405.882812 775.371094 405.621094 C 776.527344 405.359375 788.167969 405.921875 788.167969 405.921875 C 788.167969 405.921875 790.207031 447.101562 774.449219 468.875 C 758.691406 490.652344 698.210938 682.179688 697.878906 683.691406 C 697.550781 685.203125 693.113281 694.433594 693.535156 686.671875 C 693.535156 686.671875 693.550781 705.976562 687.976562 703.707031 C 682.398438 701.433594 678.246094 698.683594 678.246094 698.683594 C 678.246094 698.683594 671.683594 721.535156 665.109375 721.425781 C 658.53125 721.3125 667.160156 696.265625 668.023438 695.925781 C 668.890625 695.585938 661.59375 696.371094 660.332031 696.097656 C 659.074219 695.824219 657.078125 694.070312 657.296875 693.0625 C 657.519531 692.054688 673.554688 659.648438 678.515625 647.792969 C 683.472656 635.941406 721.3125 524.082031 726.414062 506.714844 C 731.519531 489.351562 741.371094 422.335938 744.867188 422.042969 C 748.363281 421.75 759.84375 424.777344 758.472656 431.078125 C 757.101562 437.378906 735.84375 520.382812 735.371094 521.335938 " fill-opacity="1" fill-rule="nonzero"/></g></g></g><g clip-path="url(#c26b2f61d5)"><g clip-path="url(#46bb8e6475)"><g clip-path="url(#0fdf6d9f0d)"><path stroke-linecap="butt" transform="matrix(0.732802, 0.159692, -0.159692, 0.732802, 725.078826, 563.993248)" fill="none" stroke-linejoin="miter" d="M -3.988165 -190.601033 C -5.214765 -191.117326 -21.743053 -220.804885 -9.878714 -221.839163 C 1.986735 -222.868353 19.125318 -219.929318 20.557331 -220.59853 C 21.989345 -221.267742 37.313963 -223.839677 37.313963 -223.839677 C 37.313963 -223.839677 51.661155 -170.771362 37.313938 -137.932232 C 22.96783 -105.088012 -1.449614 161.59613 -1.452999 163.659798 C -1.451294 165.722356 -4.611785 179.007223 -6.265711 168.775807 C -6.265711 168.775807 -0.764815 193.920721 -8.67099 192.546573 C -16.583363 191.168445 -22.773582 188.764696 -22.773582 188.764696 C -22.773582 188.764696 -24.835449 220.397842 -33.431121 222.121753 C -42.032991 223.841684 -37.902338 188.761929 -36.874171 188.074112 C -35.840916 187.385185 -45.12408 190.479615 -46.845424 190.48159 C -48.561678 190.482455 -51.660035 188.764224 -51.661171 187.389185 C -51.657219 186.013037 -39.967312 139.243179 -36.870138 122.389969 C -33.776944 105.542956 -16.237284 -50.925439 -14.521669 -74.999012 C -12.799857 -99.068606 -18.991174 -189.170626 -14.519781 -190.544824 C -10.048387 -191.919022 5.767348 -191.234393 5.769916 -182.636745 C 5.772484 -174.039098 1.643233 -59.870005 1.298065 -58.494127 " stroke="#000000" stroke-width="5" stroke-opacity="1" stroke-miterlimit="10"/></g></g></g><g clip-path="url(#efe868ed5f)"><g clip-path="url(#58e5b60501)"><g clip-path="url(#b37afa7923)"><path stroke-linecap="butt" transform="matrix(0.732802, 0.159692, -0.159692, 0.732802, 709.232443, 604.466006)" fill="none" stroke-linejoin="miter" d="M 10.797157 -117.094984 C 10.797157 -117.094984 -10.796634 100.68421 -9.14999 117.095341 " stroke="#000000" stroke-width="5" stroke-opacity="1" stroke-miterlimit="10"/></g></g></g><g clip-path="url(#9a0a16b0fd)"><g clip-path="url(#5b3435a7e1)"><g clip-path="url(#a66eaa0f44)"><path stroke-linecap="butt" transform="matrix(0.732802, 0.159692, -0.159692, 0.732802, 769.080784, 434.710702)" fill="none" stroke-linejoin="miter" d="M -18.976247 -12.724967 C -18.976247 -12.724967 -14.852316 -26.480984 -6.597023 -23.040027 C 1.657161 -19.604159 16.44418 -3.092778 15.069193 4.467093 C 13.691335 12.03825 18.760758 24.073374 18.975729 26.478589 " stroke="#000000" stroke-width="5" stroke-opacity="1" stroke-miterlimit="10"/></g></g></g><g clip-path="url(#d299193d7d)"><g clip-path="url(#09ceb0737e)"><g clip-path="url(#882cc4df8e)"><path fill="#70c484" d="M 746.0625 352.3125 C 747.871094 313.3125 733.140625 275.617188 727.628906 236.964844 C 724.386719 214.230469 724.363281 191.140625 726.34375 168.292969 C 727.335938 156.816406 728.835938 145.390625 730.683594 134.019531 C 732.199219 124.710938 731.066406 112.988281 736.824219 104.96875 C 738.320312 106.710938 739.152344 110.460938 740.945312 111.886719 C 742.984375 113.507812 746.675781 112.070312 748.316406 113.808594 C 750.515625 116.140625 747.605469 126.148438 747.257812 129.207031 C 746.582031 135.148438 745.945312 141.097656 745.386719 147.054688 C 743.078125 171.53125 741.992188 196.230469 744.386719 220.742188 C 746.65625 243.996094 752.03125 266.839844 755.050781 290.011719 C 758.152344 313.800781 758.761719 337.824219 758.84375 361.789062 C 758.859375 367.011719 758.511719 372.289062 759.371094 377.449219 C 759.613281 378.886719 761.851562 384.222656 760.371094 385.425781 C 755.722656 389.207031 749.015625 374.070312 748.507812 371.832031 C 746.644531 363.648438 745.675781 360.699219 746.0625 352.3125 Z M 746.0625 352.3125 " fill-opacity="1" fill-rule="nonzero"/></g></g></g><g clip-path="url(#fcd581a97d)"><g clip-path="url(#d52f7215e4)"><g clip-path="url(#6dae57f0c7)"><path stroke-linecap="butt" transform="matrix(0.747358, -0.0628963, 0.0628963, 0.747358, 743.981921, 245.824841)" fill="none" stroke-linejoin="miter" d="M -9.142651 141.71606 C -2.378877 90.101455 -17.735394 38.37098 -20.73653 -13.600241 C -22.502161 -44.168495 -19.951495 -74.849131 -14.765447 -104.98392 C -12.163931 -120.12116 -8.893394 -135.13415 -5.167064 -150.035606 C -2.112503 -162.233876 -2.306823 -177.935694 6.239927 -187.946925 C 8.032889 -185.464904 8.719047 -180.389482 10.941827 -178.294654 C 13.469737 -175.91281 18.53501 -177.409969 20.520437 -174.916977 C 23.181643 -171.572647 18.196072 -158.601301 17.392165 -154.576414 C 15.829955 -146.758006 14.318771 -138.92485 12.910514 -131.072579 C 7.106369 -98.810255 2.901794 -66.11539 3.342462 -33.280473 C 3.757695 -2.130709 8.344829 28.821346 9.765711 59.945982 C 11.226572 91.899808 9.350014 123.886368 6.77936 155.736113 C 6.216145 162.676873 5.164146 169.649673 5.728957 176.601737 C 5.890002 178.538733 8.267223 185.878531 6.16569 187.311507 C -0.433198 191.815647 -7.651884 170.954495 -8.076308 167.923851 C -9.636878 156.842483 -10.594226 152.815722 -9.142651 141.71606 Z M -9.142651 141.71606 " stroke="#000000" stroke-width="5" stroke-opacity="1" stroke-miterlimit="10"/></g></g></g><g clip-path="url(#e7e12786bc)"><g clip-path="url(#d4099c37f6)"><g clip-path="url(#5935d4ae24)"><path fill="#70c484" d="M 754.949219 352.851562 C 759.132812 321.460938 752.238281 302.964844 746.851562 282.484375 C 741.699219 262.601562 734.675781 250.097656 730.625 237.226562 C 723.195312 215.472656 722.738281 192.011719 721.648438 169.128906 C 721.101562 157.597656 720.695312 146.058594 719.878906 134.542969 C 719.195312 124.871094 719.691406 112.65625 716.683594 103.464844 C 716.683594 103.457031 716.679688 103.453125 716.679688 103.445312 C 712.628906 107.636719 707.566406 111.453125 707.058594 117.847656 C 703.921875 157.425781 709.730469 227.066406 719.292969 263.976562 C 729.441406 303.167969 737.855469 315.949219 738.085938 366.96875 C 738.082031 371.25 737.789062 375.53125 737.257812 379.785156 C 736.71875 384.101562 736.671875 389.082031 738.996094 392.921875 C 740.246094 394.992188 742.078125 396.707031 744.207031 397.851562 C 747.679688 399.722656 748.222656 396.585938 747.917969 393.851562 C 747.488281 390.007812 747.859375 385.886719 748.09375 382.035156 C 748.605469 373.488281 753.675781 361.300781 754.949219 352.851562 Z M 754.949219 352.851562 " fill-opacity="1" fill-rule="nonzero"/></g></g></g><g clip-path="url(#7e6127c68d)"><g clip-path="url(#810ec075d8)"><g clip-path="url(#0c689a908d)"><path stroke-linecap="butt" transform="matrix(0.747414, -0.062231, 0.062231, 0.747414, 727.301874, 252.212381)" fill="none" stroke-linejoin="miter" d="M 25.602004 136.781567 C 34.633731 95.53457 27.518999 70.19539 22.627288 42.386315 C 17.980879 15.397296 10.031932 -1.994113 6.073481 -19.544543 C -1.391911 -49.2717 0.596368 -80.495645 1.679846 -111.021424 C 2.228929 -126.403909 2.965731 -141.781216 3.15495 -157.172758 C 3.316662 -170.099751 5.327204 -186.275164 2.347488 -198.820875 C 2.348353 -198.831256 2.343595 -198.836879 2.344459 -198.847259 C -3.501666 -193.726139 -10.65061 -189.215223 -12.032804 -180.774763 C -20.579317 -128.532924 -20.565778 -35.356327 -11.943223 14.745438 C -2.794492 67.943205 6.971545 85.856979 1.633337 153.673942 C 1.154499 159.362159 0.291574 165.018397 -0.884939 170.611939 C -2.078747 176.287664 -2.692035 182.900204 -0.0285762 188.259476 C 1.403299 191.148665 3.647866 193.629922 6.349996 195.386228 C 10.757233 198.256607 11.82572 194.148808 11.723382 190.481838 C 11.577687 185.326973 12.526701 179.892184 13.264233 174.800406 C 14.889737 163.500482 22.975181 147.867461 25.602004 136.781567 Z M 25.602004 136.781567 " stroke="#000000" stroke-width="5" stroke-opacity="1" stroke-miterlimit="10"/></g></g></g><g clip-path="url(#fabaaca387)"><g clip-path="url(#3dba8a0296)"><g clip-path="url(#85c5a9068e)"><path fill="#ef597a" d="M 740.957031 268.183594 C 740.957031 268.183594 757.007812 297.332031 761.480469 328.4375 C 764.847656 351.871094 758.21875 377.773438 752.390625 385.550781 C 746.558594 393.339844 745.71875 394.519531 741.410156 399.066406 C 741.410156 399.066406 743.964844 370.980469 742.667969 339.949219 C 741.503906 312.78125 735.992188 282.9375 740.957031 268.183594 Z M 740.957031 268.183594 " fill-opacity="1" fill-rule="nonzero"/></g></g></g><g clip-path="url(#1003eff2d6)"><g clip-path="url(#6b2e5ee922)"><g clip-path="url(#e75e8d5159)"><path stroke-linecap="butt" transform="matrix(0.747358, -0.0628963, 0.0628963, 0.747358, 747.892049, 333.059211)" fill="none" stroke-linejoin="miter" d="M -1.960011 -86.971574 C -1.960011 -86.971574 16.106396 -46.44916 18.570854 -4.621178 C 20.424381 26.890061 8.720685 60.563652 0.107596 70.245241 C -8.511994 79.941964 -9.759749 81.415432 -15.992717 86.974809 C -15.992717 86.974809 -9.458018 49.944454 -7.711315 8.570183 C -6.220128 -27.656339 -10.206202 -67.924139 -1.960011 -86.971574 Z M -1.960011 -86.971574 " stroke="#000000" stroke-width="5" stroke-opacity="1" stroke-miterlimit="10"/></g></g></g><g clip-path="url(#36c06bef78)"><g clip-path="url(#0819c8a00a)"><g clip-path="url(#4a72e2adcd)"><path fill="#f7e264" d="M 714.132812 80.015625 C 714.554688 81.925781 715.132812 83.789062 715.554688 85.675781 C 716.390625 85.113281 717.234375 84.507812 717.972656 83.816406 C 718.566406 83.257812 718.902344 82.671875 719.671875 82.300781 C 719.792969 82.664062 720.171875 86.265625 719.722656 86.320312 C 720.40625 86.234375 721.089844 86.144531 721.777344 86.054688 C 719.449219 88.253906 718.453125 91.511719 717.960938 94.675781 C 717.46875 97.839844 717.375 101.085938 716.425781 104.140625 C 715.5 107.105469 713.789062 109.761719 711.707031 112.046875 C 710.078125 113.832031 707.699219 116.40625 707.414062 112.425781 C 707.179688 109.15625 708.082031 105.460938 708.605469 102.238281 C 709.1875 98.644531 709.910156 95.070312 710.773438 91.53125 C 711.257812 89.5625 711.785156 87.597656 712.351562 85.652344 C 712.726562 84.378906 714.40625 81.246094 714.132812 80.015625 Z M 714.132812 80.015625 " fill-opacity="1" fill-rule="nonzero"/></g></g></g><g clip-path="url(#3e81d03b1b)"><g clip-path="url(#b2451d869b)"><g clip-path="url(#badebe6a2c)"><path stroke-linecap="butt" transform="matrix(0.743699, -0.0970135, 0.0970135, 0.743699, 714.281682, 96.88971)" fill="none" stroke-linejoin="round" d="M 2.713422 -22.33544 C 2.941755 -19.737201 3.384755 -17.173989 3.61713 -14.606738 C 4.819363 -15.206265 6.039336 -15.861254 7.134687 -16.648054 C 8.016043 -17.284185 8.561252 -18.000933 9.642676 -18.358848 C 9.740123 -17.857658 9.619931 -13.030568 9.016573 -13.03574 C 9.935195 -13.031462 10.854492 -13.032349 11.778952 -13.032562 C 8.321568 -10.526433 6.442731 -6.39097 5.246293 -2.29255 C 4.049856 1.805871 3.366057 6.081466 1.584227 9.956456 C -0.15112 13.716702 -2.871324 16.933532 -6.018161 19.595725 C -8.479673 21.675002 -12.068873 24.668172 -11.759381 19.356287 C -11.505365 14.993114 -9.675023 10.263049 -8.427163 6.092549 C -7.037832 1.44152 -5.465945 -3.159433 -3.714197 -7.689652 C -2.734242 -10.209059 -1.69815 -12.715892 -0.613781 -15.190164 C 0.101646 -16.809141 2.862726 -20.661439 2.713422 -22.33544 Z M 2.713422 -22.33544 " stroke="#000000" stroke-width="5" stroke-opacity="1" stroke-miterlimit="4"/></g></g></g><g clip-path="url(#3938bba13b)"><g clip-path="url(#0c070d0acc)"><g clip-path="url(#1b41948d68)"><path fill="#f7e264" d="M 739.652344 389.246094 C 735.691406 399.300781 733.601562 410.085938 733.515625 420.890625 C 733.449219 429.085938 734.523438 437.242188 735 445.425781 C 735.476562 453.605469 737.484375 466.933594 735.054688 474.761719 C 736.484375 472.050781 737.710938 461.683594 739.140625 458.976562 C 739.429688 460.054688 740.175781 464.375 740.464844 465.453125 C 745.335938 444.054688 745.984375 421.6875 747.191406 399.777344 C 747.257812 398.589844 746.140625 397.460938 745.402344 396.527344 C 743.699219 394.359375 741.703125 391.089844 739.652344 389.246094 Z M 739.652344 389.246094 " fill-opacity="1" fill-rule="nonzero"/></g></g></g><g clip-path="url(#b03efce48a)"><g clip-path="url(#17f24424bf)"><g clip-path="url(#a6dc28261c)"><path stroke-linecap="round" transform="matrix(0.730198, 0.171203, -0.171203, 0.730198, 738.435329, 432.257758)" fill="none" stroke-linejoin="round" d="M -11.511225 -56.205158 C -13.592784 -41.947309 -13.023094 -27.310703 -9.846128 -13.258655 C -7.437999 -2.59986 -3.56108 7.661066 -0.451674 18.13939 C 2.656544 28.612643 9.319506 45.303187 8.54803 56.204615 C 9.578847 52.250324 8.015719 38.419046 9.047725 34.469826 C 9.751105 35.781393 12.034566 41.16264 12.737946 42.474207 C 12.548413 13.213676 6.582472 -16.019207 1.480761 -44.828819 C 1.205537 -46.39056 -0.588313 -47.515999 -1.830848 -48.503221 C -4.701571 -50.799163 -8.287878 -54.435908 -11.511225 -56.205158 Z M -11.511225 -56.205158 " stroke="#000000" stroke-width="5" stroke-opacity="1" stroke-miterlimit="4"/></g></g></g><g clip-path="url(#3440d50791)"><g clip-path="url(#a54185bbe4)"><g clip-path="url(#ac63c7670b)"><path fill="#f7e264" d="M 684.476562 48.816406 C 684.476562 48.816406 681.464844 43.496094 681.464844 43.496094 C 681.464844 43.496094 686.628906 43.125 686.628906 43.125 C 686.628906 43.125 687.757812 46.925781 687.761719 47.082031 C 687.765625 47.238281 687.320312 49.355469 687.320312 49.355469 " fill-opacity="1" fill-rule="nonzero"/></g></g></g><g clip-path="url(#45facf724c)"><g clip-path="url(#8ab17651f9)"><g clip-path="url(#d0127184af)"><path stroke-linecap="butt" transform="matrix(0.743612, -0.0976754, 0.0976754, 0.743612, 684.763508, 46.376523)" fill="none" stroke-linejoin="miter" d="M -0.803009 3.175645 C -0.803009 3.175645 -3.860588 -4.380661 -3.860588 -4.380661 C -3.860588 -4.380661 3.030627 -3.974524 3.030627 -3.974524 C 3.030627 -3.974524 3.863029 1.246054 3.84106 1.453291 C 3.819092 1.660528 2.862759 4.382077 2.862759 4.382077 " stroke="#000000" stroke-width="5" stroke-opacity="1" stroke-miterlimit="10"/></g></g></g><g clip-path="url(#33981916d5)"><g clip-path="url(#0046925bb1)"><g clip-path="url(#591d45cb48)"><path fill="#f7e264" d="M 669.027344 -9.445312 C 670.777344 -5.328125 669.46875 0.371094 669.46875 0.371094 C 669.46875 0.371094 668.8125 1.003906 667.90625 0.460938 C 667 -0.0820312 665.3125 -0.550781 665.417969 2.15625 C 665.523438 4.863281 665.355469 5.414062 665.167969 7.015625 C 664.976562 8.613281 665.398438 10.664062 667.332031 10.402344 C 670.761719 9.941406 670.011719 17.15625 670.011719 17.15625 C 670.011719 17.15625 670.027344 18.257812 669.683594 18.292969 C 669.339844 18.328125 667.695312 17.695312 667.644531 18.777344 C 667.59375 19.855469 668.402344 25.558594 671.257812 26.667969 C 672.039062 27.855469 671.933594 27.421875 671.933594 27.421875 C 671.933594 27.421875 676.957031 27.753906 677.539062 30.128906 C 678.117188 32.503906 680.691406 41.382812 682.246094 41.421875 C 683.796875 41.457031 686.738281 40.449219 685.863281 36.222656 C 685.863281 36.222656 679.542969 11.691406 689.476562 2.125 C 694.890625 -3.089844 704.363281 -9.828125 712.8125 -15.195312 C 712.8125 -15.195312 669.027344 -9.445312 669.027344 -9.445312 Z M 669.027344 -9.445312 " fill-opacity="1" fill-rule="nonzero"/></g></g></g><g clip-path="url(#f257db63ab)"><g clip-path="url(#d4486ed5ee)"><g clip-path="url(#ce08d88aef)"><path stroke-linecap="butt" transform="matrix(0.743612, -0.0976754, 0.0976754, 0.743612, 691.174963, 14.067882)" fill="none" stroke-linejoin="miter" d="M -25.195708 -34.929753 C -23.597177 -29.183043 -26.316751 -21.876033 -26.316751 -21.876033 C -26.316751 -21.876033 -27.294184 -21.153423 -28.397943 -22.028582 C -29.501701 -22.903741 -31.651143 -23.816444 -31.981779 -20.219495 C -32.312414 -16.622545 -32.630784 -15.918427 -33.15608 -13.83892 C -33.686541 -11.76009 -33.48494 -8.975746 -30.884004 -8.980809 C -26.269315 -8.999773 -28.513622 0.407856 -28.513622 0.407856 C -28.513622 0.407856 -28.684925 1.871975 -29.144781 1.853596 C -29.605316 1.840381 -31.670143 0.723416 -31.924486 2.139856 C -32.178829 3.556295 -32.100207 11.236109 -28.517978 13.198516 C -27.691387 14.904026 -27.756201 14.317674 -27.756201 14.317674 C -27.756201 14.317674 -21.172305 15.623744 -20.81528 18.864509 C -20.464097 22.109759 -18.602139 34.289313 -16.55366 34.610917 C -14.510344 34.931843 -10.44619 34.105134 -10.868998 28.365772 C -10.868998 28.365772 -14.964576 -5.16149 -0.172102 -16.077982 C 7.89138 -22.036927 21.584093 -29.299904 33.68576 -34.92804 C 33.68576 -34.92804 -25.195708 -34.929753 -25.195708 -34.929753 Z M -25.195708 -34.929753 " stroke="#000000" stroke-width="5" stroke-opacity="1" stroke-miterlimit="10"/></g></g></g><g clip-path="url(#06a4a69a1f)"><g clip-path="url(#3d52be0e86)"><g clip-path="url(#211bca8af1)"><path fill="#f7e264" d="M 686.089844 45.183594 C 684.53125 43.472656 680.363281 44.132812 678.769531 43.371094 C 677.179688 42.609375 675.660156 39 675.359375 36.597656 C 675.0625 34.195312 674.171875 32.226562 673.820312 31.851562 C 673.46875 31.476562 673.105469 28.730469 673.105469 28.730469 C 673.105469 28.730469 674.660156 28.484375 676.535156 30.511719 C 678.40625 32.539062 681.882812 34.503906 682.109375 34.546875 C 682.332031 34.589844 687.214844 35.375 687.726562 37.726562 C 688.242188 40.074219 688.4375 41.761719 689.25 42.3125 C 690.0625 42.867188 691.519531 44.175781 691.117188 44.910156 C 690.714844 45.644531 692.125 45.191406 692.28125 45.839844 C 692.441406 46.488281 693.660156 48.296875 694.457031 49.007812 C 695.253906 49.71875 699.058594 52.128906 699.222656 52.207031 C 699.390625 52.285156 701.429688 53.445312 701.128906 54.230469 C 700.824219 55.019531 703.558594 54.878906 703.835938 55.765625 C 704.113281 56.65625 701.214844 60.289062 698.996094 58.609375 C 696.777344 56.929688 696.300781 56.882812 696.300781 56.882812 C 696.300781 56.882812 693.226562 55.003906 693.472656 54.375 C 693.71875 53.75 690.660156 50.992188 689.34375 51.144531 C 686.414062 51.265625 684.601562 50.636719 684.277344 48.796875 C 684.277344 48.796875 684.316406 48.222656 684.8125 48.199219 " fill-opacity="1" fill-rule="nonzero"/></g></g></g><g clip-path="url(#c117da3dbe)"><g clip-path="url(#c6b184ae6f)"><g clip-path="url(#c1d651bef9)"><path stroke-linecap="butt" transform="matrix(0.743612, -0.0976754, 0.0976754, 0.743612, 688.816028, 44.270814)" fill="none" stroke-linejoin="miter" d="M -3.762455 0.733286 C -5.525785 -1.799178 -11.15038 -1.650214 -13.125014 -2.933936 C -15.094483 -4.216981 -16.476519 -9.252354 -16.456989 -12.480428 C -16.432296 -15.707825 -17.267818 -18.465121 -17.667459 -19.02191 C -18.0671 -19.578699 -18.070504 -23.272056 -18.070504 -23.272056 C -18.070504 -23.272056 -15.972508 -23.327423 -13.845838 -20.321734 C -11.724333 -17.316724 -7.46958 -14.115556 -7.17753 -14.01941 C -6.890645 -13.923943 -0.572014 -12.038107 -0.30387 -8.840536 C -0.029885 -5.64745 -0.0647126 -3.382698 0.913754 -2.51349 C 1.891542 -1.639119 3.590474 0.34382 2.931064 1.244782 C 2.271653 2.145745 4.214532 1.79159 4.308493 2.675942 C 4.407618 3.560973 5.704724 6.163524 6.634725 7.241741 C 7.564725 8.319958 12.175925 12.166798 12.379246 12.298566 C 12.587731 12.431012 15.081871 14.318787 14.547906 15.304517 C 14.008099 16.294732 17.647301 16.58364 17.859969 17.804022 C 18.071959 19.029568 13.609468 23.328766 10.967999 20.722981 C 8.32653 18.117196 7.704665 17.972475 7.704665 17.972475 C 7.704665 17.972475 3.966879 14.954779 4.401416 14.166112 C 4.835275 13.382609 1.270763 9.205732 -0.495951 9.178539 C -4.389961 8.829896 -6.676839 7.683764 -6.785969 5.195232 C -6.785969 5.195232 -6.634619 4.44291 -5.974724 4.498071 " stroke="#000000" stroke-width="5" stroke-opacity="1" stroke-miterlimit="10"/></g></g></g><g clip-path="url(#a9d95fc645)"><g clip-path="url(#6acbd7c098)"><g clip-path="url(#cbbac8dc37)"><path fill="#f7e264" d="M 677.488281 24.792969 C 677.488281 24.792969 675.367188 19.121094 676.707031 18.394531 C 677.277344 18.085938 677.832031 18.285156 677.832031 18.285156 " fill-opacity="1" fill-rule="nonzero"/></g></g></g><g clip-path="url(#185e28fe82)"><g clip-path="url(#f490805239)"><g clip-path="url(#09f1f6511c)"><path stroke-linecap="butt" transform="matrix(0.743612, -0.0976754, 0.0976754, 0.743612, 676.965788, 21.495656)" fill="none" stroke-linejoin="miter" d="M 0.118162 4.449703 C 0.118162 4.449703 -1.700983 -3.416708 0.196425 -4.14455 C 1.003951 -4.453472 1.702642 -4.093791 1.702642 -4.093791 " stroke="#000000" stroke-width="5" stroke-opacity="1" stroke-miterlimit="10"/></g></g></g><g clip-path="url(#aa2ab23df2)"><g clip-path="url(#ac492134cd)"><g clip-path="url(#9b8172a530)"><path fill="#f7e264" d="M 675.402344 11.097656 C 675.402344 11.097656 674.050781 10.09375 675.085938 7.875 C 676.121094 5.660156 676.136719 4.171875 676.136719 4.171875 C 676.136719 4.171875 676.238281 2.960938 677.957031 3.078125 " fill-opacity="1" fill-rule="nonzero"/></g></g></g><g clip-path="url(#5d6220aae6)"><g clip-path="url(#fb3ac3cd1a)"><g clip-path="url(#27de479328)"><path stroke-linecap="butt" transform="matrix(0.743612, -0.0976754, 0.0976754, 0.743612, 676.05782, 6.998939)" fill="none" stroke-linejoin="miter" d="M -1.578248 5.304593 C -1.578248 5.304593 -3.19066 3.742759 -1.436931 0.989371 C 0.316119 -1.758854 0.595208 -3.723615 0.595208 -3.723615 C 0.595208 -3.723615 0.939745 -5.306812 3.191546 -4.85344 " stroke="#000000" stroke-width="5" stroke-opacity="1" stroke-miterlimit="10"/></g></g></g><g clip-path="url(#26495901fb)"><g clip-path="url(#3534fb7a51)"><g clip-path="url(#f51d35c306)"><path stroke-linecap="butt" transform="matrix(0.743612, -0.0976754, 0.0976754, 0.743612, 679.899356, -3.526241)" fill="none" stroke-linejoin="miter" d="M -2.192547 4.165126 C -2.192547 4.165126 2.070119 -1.652192 2.194987 -4.162519 " stroke="#000000" stroke-width="5" stroke-opacity="1" stroke-miterlimit="10"/></g></g></g><g clip-path="url(#52e7f3cb95)"><g clip-path="url(#ef4e634b85)"><g clip-path="url(#4bf5fa7460)"><path stroke-linecap="butt" transform="matrix(0.743612, -0.0976754, 0.0976754, 0.743612, 711.17493, -8.826524)" fill="none" stroke-linejoin="miter" d="M -24.36048 -8.134602 C -25.047636 -7.342345 -25.575516 -5.88304 -25.037207 -3.222566 C -23.966039 8.138698 -17.270918 3.638973 -13.547191 3.324374 C -9.827949 3.003933 2.357306 -1.94083 2.357306 -1.94083 C 2.829994 0.779313 11.431579 1.441631 21.910886 -3.433042 C 24.098897 -4.453656 25.204267 -6.110266 25.575476 -8.136471 C 25.575476 -8.136471 -24.36048 -8.134602 -24.36048 -8.134602 Z M -24.36048 -8.134602 " stroke="#000000" stroke-width="5" stroke-opacity="1" stroke-miterlimit="10"/></g></g></g><g clip-path="url(#21c8d5f552)"><g clip-path="url(#8d4b142227)"><g clip-path="url(#0ee45519dc)"><path fill="#f7e264" d="M 780.570312 44.929688 C 776.574219 43.890625 772.386719 40.726562 769.949219 37.449219 C 769.417969 36.734375 769.035156 35.875 768.359375 35.316406 C 767.765625 34.832031 767.195312 34.769531 767.070312 33.828125 C 766.980469 33.164062 767.175781 32.5 767.347656 31.855469 C 768.453125 27.660156 768.5 22.828125 765.871094 19.375 C 765.058594 18.3125 764.035156 17.433594 763.125 16.453125 C 762.214844 15.472656 761.394531 14.339844 761.128906 13.027344 C 760.863281 11.691406 761.484375 11.011719 761.878906 9.851562 C 762.171875 8.984375 761.914062 7.996094 761.855469 7.09375 C 761.6875 4.449219 761.671875 1.792969 761.851562 -0.851562 C 762.054688 -3.910156 762.613281 -7.164062 764.714844 -9.394531 C 766.667969 -11.46875 769.644531 -12.308594 771.671875 -14.3125 C 774 -16.617188 774.605469 -19.929688 774.3125 -23.273438 C 774.3125 -23.273438 688.953125 -12.0625 688.953125 -12.0625 C 689.183594 -9.890625 689.429688 -7.71875 690.191406 -5.691406 C 691.414062 -2.453125 694.082031 0.105469 697.21875 1.496094 C 698.582031 2.105469 700.242188 2.171875 701.273438 3.328125 C 702.171875 4.339844 702.621094 5.90625 703.988281 6.425781 C 705.460938 6.984375 706.988281 5.832031 708.113281 4.734375 C 710.136719 2.761719 715.785156 -2.710938 717.949219 1.863281 C 718.5 3.03125 718.871094 4.316406 719.105469 5.660156 C 719.726562 9.230469 719.363281 13.214844 718.738281 16.476562 C 717.546875 22.675781 714.589844 28.546875 710.265625 33.15625 C 709.019531 34.480469 706.546875 35.636719 706.320312 37.632812 C 706.011719 40.332031 709.050781 41.921875 710.394531 43.886719 C 711.4375 45.410156 712.136719 47.238281 711.984375 49.078125 C 711.816406 51.148438 710.621094 52.96875 709.683594 54.820312 C 708.382812 57.375 707.527344 60.15625 707.144531 62.996094 C 706.835938 65.285156 706.246094 68.007812 707.222656 70.160156 C 709.660156 75.523438 714.234375 79.71875 718.671875 83.4375 C 720.363281 84.855469 722.128906 86.257812 724.128906 87.21875 C 726.011719 88.125 727.816406 88.171875 729.804688 88.449219 C 734.585938 89.117188 738.957031 87.367188 743.003906 84.933594 C 746.453125 82.851562 749.726562 80.394531 753.5 78.902344 C 756.96875 77.527344 760.542969 77.664062 763.027344 74.460938 C 764.644531 72.371094 765.578125 69.832031 766.984375 67.589844 C 769.316406 63.871094 772.855469 61.136719 776.542969 58.855469 C 778.28125 57.78125 780.113281 56.898438 781.6875 55.597656 C 783.128906 54.410156 785.3125 54.238281 786.382812 52.589844 C 787.660156 50.628906 786.507812 48.175781 785.015625 46.722656 C 783.601562 45.347656 782.34375 45.386719 780.570312 44.929688 Z M 761.320312 58.867188 C 758.191406 66.628906 750.316406 71.761719 742.105469 73.378906 C 738.933594 74.003906 735.550781 74.160156 732.566406 72.921875 C 725.652344 70.050781 724.417969 61.425781 729.222656 56.160156 C 732.09375 53.015625 736.222656 51.398438 740.199219 49.878906 C 743.269531 48.707031 746.34375 47.535156 749.414062 46.359375 C 751.796875 45.453125 754.363281 44.527344 756.839844 45.140625 C 759.492188 45.796875 761.488281 48.199219 762.164062 50.847656 C 762.835938 53.496094 762.34375 56.332031 761.320312 58.867188 Z M 761.320312 58.867188 " fill-opacity="1" fill-rule="nonzero"/></g></g></g><g clip-path="url(#1de0517378)"><g clip-path="url(#67de949537)"><g clip-path="url(#28066624a4)"><path stroke-linecap="butt" transform="matrix(0.743612, -0.0976754, 0.0976754, 0.743612, 740.294969, 34.780433)" fill="none" stroke-linejoin="miter" d="M 51.480743 20.410712 C 46.378424 18.343192 41.392066 13.433232 38.73884 8.677395 C 38.160669 7.640139 37.803825 6.43759 37.007455 5.581796 C 36.30664 4.838361 35.563552 4.656705 35.561776 3.390481 C 35.558315 2.497004 35.931826 1.653043 36.27096 0.830833 C 38.460862 -4.523318 39.361889 -10.903017 36.486152 -15.924469 C 35.596543 -17.470157 34.396199 -18.809767 33.363246 -20.263969 C 32.330294 -21.718172 31.442566 -23.358168 31.319325 -25.139389 C 31.200154 -26.951593 32.139251 -27.742275 32.862268 -29.207467 C 33.400149 -30.302997 33.230937 -31.654251 33.310165 -32.857304 C 33.547324 -36.382483 33.987914 -39.8967 34.684667 -43.36151 C 35.484304 -47.369631 36.787778 -51.574226 39.953308 -54.15793 C 42.895474 -56.56085 46.976259 -57.154239 50.004331 -59.45132 C 53.482259 -62.093798 54.857875 -66.367713 55.051203 -70.83895 C 55.051203 -70.83895 -59.738728 -70.84059 -59.738728 -70.84059 C -59.811189 -67.929399 -59.862995 -65.015495 -59.208058 -62.203123 C -58.154046 -57.709878 -55.071338 -53.864194 -51.16614 -51.481142 C -49.469728 -50.438834 -47.286569 -50.062768 -46.124057 -48.35516 C -45.112022 -46.861681 -44.790164 -44.712922 -43.072987 -43.788707 C -41.223165 -42.794539 -39.003951 -44.052696 -37.326123 -45.308422 C -34.308641 -47.56487 -25.891231 -53.818776 -23.82468 -47.39598 C -23.299371 -45.756311 -23.031955 -43.992924 -22.955452 -42.175818 C -22.754348 -37.348094 -23.926466 -32.143921 -25.319084 -27.940529 C -27.970561 -19.952181 -32.899179 -12.704199 -39.416097 -7.361588 C -41.293349 -5.827378 -44.762923 -4.728206 -45.409046 -2.128756 C -46.285707 1.385966 -42.544202 4.015423 -41.10898 6.846238 C -39.994737 9.041296 -39.38783 11.579453 -39.908705 13.985231 C -40.490256 16.692972 -42.386522 18.891824 -43.947391 21.176757 C -46.110604 24.328122 -47.724466 27.856325 -48.723661 31.544062 C -49.5291 34.516566 -50.781637 38.013434 -49.864387 41.02836 C -47.573374 48.54176 -42.254855 54.882162 -37.034321 60.568818 C -35.044543 62.737046 -32.953936 64.897506 -30.476843 66.515134 C -28.145172 68.040118 -25.767555 68.415461 -23.187251 69.127359 C -16.982533 70.840641 -10.900165 69.286199 -5.132868 66.771084 C -0.206378 64.618304 4.547686 61.93858 9.795198 60.621181 C 14.619571 59.405793 19.320869 60.207178 23.161365 56.404118 C 25.662142 53.922208 27.337229 50.727737 29.585605 48.007804 C 33.314242 43.496645 38.467616 40.496403 43.738538 38.120958 C 46.22304 37.002709 48.798241 36.153774 51.105198 34.707525 C 53.216909 33.38797 56.133417 33.539926 57.83459 31.546582 C 59.863717 29.176071 58.766318 25.732995 57.046007 23.552885 C 55.41541 21.48962 53.745827 21.322846 51.480743 20.410712 Z M 23.612488 35.493107 C 18.128358 45.210608 6.821329 50.627938 -4.309001 51.340712 C -8.610678 51.616167 -13.109814 51.235317 -16.84007 49.080114 C -25.481756 44.083997 -25.615882 32.467595 -18.34984 26.340866 C -14.008285 22.682417 -8.269145 21.261496 -2.748358 19.943221 C 1.514018 18.927173 5.781557 17.911804 10.044611 16.890592 C 13.352003 16.106314 16.905493 15.328096 20.07296 16.568883 C 23.465345 17.896998 25.686981 21.419456 26.120461 25.037978 C 26.548776 28.655822 25.405668 32.319402 23.612488 35.493107 Z M 23.612488 35.493107 " stroke="#000000" stroke-width="5" stroke-opacity="1" stroke-miterlimit="10"/></g></g></g><g clip-path="url(#0b3b48c596)"><g clip-path="url(#f1cd84c4af)"><g clip-path="url(#df0094d885)"><path stroke-linecap="butt" transform="matrix(0.743612, -0.0976754, 0.0976754, 0.743612, 743.754281, 29.217792)" fill="none" stroke-linejoin="miter" d="M 18.967345 -17.468978 C 10.836962 -21.478646 0.592493 -20.791344 -6.931706 -15.738634 C -14.455906 -10.685924 -18.967308 -1.455262 -18.331913 7.584688 C -18.044817 11.677771 -16.625455 15.909074 -13.458092 18.510393 C -10.286244 21.117555 -5.11704 21.476107 -2.261284 18.531276 " stroke="#000000" stroke-width="5" stroke-opacity="1" stroke-miterlimit="10"/></g></g></g><g clip-path="url(#5e855a8287)"><g clip-path="url(#4992cf6668)"><g clip-path="url(#aaa25761db)"><path fill="#f7e264" d="M 729.769531 44.671875 C 729.769531 44.671875 721.996094 21.207031 742.382812 17.3125 C 762.769531 13.410156 778.574219 38.042969 758.894531 51.746094 C 752.308594 53.964844 729.769531 44.671875 729.769531 44.671875 Z M 729.769531 44.671875 " fill-opacity="1" fill-rule="nonzero"/></g></g></g><g clip-path="url(#d799dfb0a6)"><g clip-path="url(#356ee4520d)"><g clip-path="url(#09cacafaf4)"><path stroke-linecap="butt" transform="matrix(0.745305, -0.0837851, 0.0837851, 0.745305, 750.826432, 34.443329)" fill="none" stroke-linejoin="miter" d="M -29.423683 10.416243 C -29.423683 10.416243 -36.228272 -21.832241 -8.636032 -23.95582 C 18.957372 -26.089749 36.229296 8.902544 8.112861 24.127698 C -0.943909 26.086531 -29.423683 10.416243 -29.423683 10.416243 Z M -29.423683 10.416243 " stroke="#000000" stroke-width="5" stroke-opacity="1" stroke-miterlimit="10"/></g></g></g><g clip-path="url(#df695b10fc)"><g clip-path="url(#e922efcc46)"><g clip-path="url(#eadf13dfaa)"><path fill="#f7e264" d="M 723.59375 46.886719 C 723.59375 46.886719 727.480469 40.753906 732.6875 40.632812 C 737.894531 40.515625 753.144531 40.484375 756.050781 46.019531 C 758.960938 51.554688 760.710938 54.492188 760.710938 54.492188 C 760.710938 54.492188 757.910156 65.84375 757.398438 70.445312 C 756.890625 75.046875 767.757812 126.558594 771.90625 138.53125 C 776.054688 150.503906 797.175781 317.28125 795.007812 357.503906 C 795.457031 371.007812 798.269531 376.507812 799.046875 383.28125 C 799.824219 390.050781 800.765625 398.542969 788.367188 403.429688 C 775.964844 408.320312 752.03125 413.863281 747.097656 396.816406 C 744.699219 387.410156 747.851562 375.554688 751.496094 373.988281 C 755.144531 372.421875 763.761719 364.628906 764.523438 359.855469 C 765.289062 355.085938 773.402344 257.667969 748.546875 142.488281 C 733.882812 96.730469 725.675781 82.761719 723.195312 74.832031 C 720.710938 66.90625 720.308594 52.324219 723.59375 46.886719 Z M 723.59375 46.886719 " fill-opacity="1" fill-rule="nonzero"/></g></g></g><g clip-path="url(#503b33a16b)"><g clip-path="url(#83ee774c13)"><g clip-path="url(#930ed27350)"><path stroke-linecap="butt" transform="matrix(0.745305, -0.0837851, 0.0837851, 0.745305, 756.66664, 225.406737)" fill="none" stroke-linejoin="miter" d="M -17.230387 -241.463018 C -17.230387 -241.463018 -11.167044 -249.009986 -4.249756 -248.39484 C 2.66695 -247.774518 22.877662 -245.544418 25.903938 -237.777516 C 28.93539 -230.010033 30.816574 -225.857217 30.816574 -225.857217 C 30.816574 -225.857217 25.414745 -211.23372 24.051316 -205.212929 C 22.693062 -199.191556 29.419215 -129.320498 33.132501 -112.838965 C 36.845786 -96.357432 39.98928 127.766457 31.125534 180.738047 C 29.70932 198.697464 32.616615 206.40382 32.637674 215.494325 C 32.659315 224.579655 32.641745 235.97192 15.486089 240.599998 C -1.675325 245.23267 -34.212666 249.012096 -38.210463 225.690337 C -39.98729 212.869924 -34.044588 197.631123 -28.982312 196.098512 C -23.91486 194.566483 -11.336423 185.524438 -9.616146 179.313153 C -7.891275 173.107625 17.369246 45.238529 1.592219 -111.075356 C -11.021797 -173.88811 -19.815347 -193.618975 -21.9208 -204.495179 C -24.032011 -215.36679 -22.3931 -234.747727 -17.230387 -241.463018 Z M -17.230387 -241.463018 " stroke="#000000" stroke-width="5" stroke-opacity="1" stroke-miterlimit="10"/></g></g></g><g clip-path="url(#efa3fd7549)"><g clip-path="url(#c56e94be2c)"><g clip-path="url(#48f0a73026)"><path stroke-linecap="round" transform="matrix(0.745305, -0.0837851, 0.0837851, 0.745305, 750.318064, 56.097663)" fill="none" stroke-linejoin="round" d="M -1.499226 -16.148786 C -1.499226 -16.148786 1.501277 -10.250627 1.253683 -8.700878 C 1.006089 -7.151128 -1.230088 1.271575 -1.199721 3.146076 C -1.168773 5.015401 0.331276 16.148499 0.331276 16.148499 " stroke="#000000" stroke-width="5" stroke-opacity="1" stroke-miterlimit="4"/></g></g></g><g clip-path="url(#5ae29792aa)"><g clip-path="url(#989445d29d)"><g clip-path="url(#a794152d80)"><path fill="#f7e264" d="M 747.027344 389.859375 C 747.027344 389.859375 750.347656 405.742188 763.238281 404.089844 C 776.125 402.433594 779.121094 401.5 779.121094 401.5 " fill-opacity="1" fill-rule="nonzero"/></g></g></g><g clip-path="url(#5f301a25b1)"><g clip-path="url(#289a88d0dc)"><g clip-path="url(#70a2ad2ada)"><path stroke-linecap="butt" transform="matrix(0.745305, -0.0837851, 0.0837851, 0.745305, 763.131304, 396.178212)" fill="none" stroke-linejoin="miter" d="M -20.396345 -10.771084 C -20.396345 -10.771084 -18.362738 10.768007 -1.036703 10.498747 C 16.284737 10.223729 20.393583 9.433001 20.393583 9.433001 " stroke="#000000" stroke-width="5" stroke-opacity="1" stroke-miterlimit="10"/></g></g></g><g clip-path="url(#3160faeefd)"><g clip-path="url(#e32d6c2e00)"><g clip-path="url(#bdbed62ed3)"><path stroke-linecap="round" transform="matrix(0.745305, -0.0837851, 0.0837851, 0.745305, 740.013665, 69.926361)" fill="none" stroke-linejoin="round" d="M -13.498677 -7.178692 C -13.498677 -7.178692 2.180603 4.636435 8.163053 6.294299 C 10.231757 6.867531 13.498286 7.182333 13.498286 7.182333 " stroke="#000000" stroke-width="5" stroke-opacity="1" stroke-miterlimit="4"/></g></g></g><g clip-path="url(#fdf57c1ae1)"><g clip-path="url(#f00b0e9554)"><g clip-path="url(#f30c14ee44)"><path stroke-linecap="round" transform="matrix(0.745305, -0.0837851, 0.0837851, 0.745305, 757.138864, 40.565459)" fill="none" stroke-linejoin="round" d="M -1.840684 2.268165 C -1.840684 2.268165 0.2229 -1.215821 1.840474 -2.270888 " stroke="#000000" stroke-width="5" stroke-opacity="1" stroke-miterlimit="4"/></g></g></g><g clip-path="url(#dcec9a7b28)"><g clip-path="url(#cb58b7d455)"><g clip-path="url(#fbc8b75018)"><path fill="#f7e264" d="M 758.449219 46.832031 C 758.449219 46.832031 760.039062 44.0625 761.746094 43.457031 " fill-opacity="1" fill-rule="nonzero"/></g></g></g><g clip-path="url(#cbbf0b79d1)"><g clip-path="url(#eefcbdd23c)"><g clip-path="url(#96c9c6bc2a)"><path stroke-linecap="round" transform="matrix(0.745305, -0.0837851, 0.0837851, 0.745305, 760.09744, 45.144613)" fill="none" stroke-linejoin="round" d="M -2.435215 1.990303 C -2.435215 1.990303 0.0838326 -1.442481 2.435813 -1.990455 " stroke="#000000" stroke-width="5" stroke-opacity="1" stroke-miterlimit="4"/></g></g></g><g clip-path="url(#0eba11daf7)"><g clip-path="url(#2e70dd8168)"><g clip-path="url(#8a99513891)"><path stroke-linecap="butt" transform="matrix(0.75, 0, 0, 0.75, 580.177777, 0.00002)" fill="none" stroke-linejoin="miter" d="M 0.00254729 45.999976 L 0.00254729 1034.000025 C 0.00254729 1059.406277 20.596297 1080.000028 45.997338 1080.000028 L 487.158791 1080.000028 C 512.559832 1080.000028 533.15879 1059.406277 533.15879 1034.000025 L 533.15879 45.999976 C 533.15879 20.593724 512.559832 -0.0000266667 487.158791 -0.0000266667 L 45.997338 -0.0000266667 C 20.596297 -0.0000266667 0.00254729 20.593724 0.00254729 45.999976 Z M 0.00254729 45.999976 " stroke="#ffffff" stroke-width="10" stroke-opacity="1" stroke-miterlimit="4"/></g></g></g></svg>