<svg xmlns="http://www.w3.org/2000/svg" xmlns:xlink="http://www.w3.org/1999/xlink" width="1920" zoomAndPan="magnify" viewBox="0 0 1440 809.999993" height="1080" preserveAspectRatio="xMidYMid meet" version="1.0"><defs><clipPath id="4dba6b7703"><path d="M 935 15.738281 L 1235.867188 15.738281 L 1235.867188 794.257812 L 935 794.257812 Z M 935 15.738281 " clip-rule="nonzero"/></clipPath><clipPath id="5e8fdba60e"><path d="M 373 317 L 829 317 L 829 794.257812 L 373 794.257812 Z M 373 317 " clip-rule="nonzero"/></clipPath></defs><g clip-path="url(#4dba6b7703)"><path fill="#5e9adf" d="M 972.15625 114.261719 C 972.15625 114.261719 916.59375 149.808594 941.792969 271.199219 C 966.996094 392.585938 1003.359375 487.664062 1005.238281 501.621094 C 1007.117188 515.574219 1018.34375 801.535156 1018.34375 801.535156 C 1018.34375 801.535156 1288.152344 801.535156 1288.152344 801.535156 C 1288.152344 801.535156 1288.152344 107.179688 1288.152344 107.179688 C 1288.152344 107.179688 1288.152344 6.140625 1288.152344 6.140625 C 1288.152344 6.140625 1136.828125 6.140625 1136.828125 6.140625 C 1136.828125 6.140625 1138.707031 46.085938 1100.171875 74.753906 C 1061.632812 103.421875 972.15625 114.261719 972.15625 114.261719 Z M 972.15625 114.261719 " fill-opacity="1" fill-rule="nonzero"/></g><path fill="#5e9adf" d="M 742.53125 550.539062 C 742.53125 550.539062 761.1875 451.382812 773.550781 415.160156 C 791.410156 362.839844 856.261719 289.996094 862.84375 277.777344 C 869.421875 265.558594 854.851562 150.886719 962.472656 117.519531 C 1070.09375 84.152344 1041.316406 314.902344 997.429688 443.203125 C 953.542969 571.5 866.601562 804.128906 741.59375 779.691406 C 657.941406 760.894531 723.230469 592.414062 742.53125 550.539062 Z M 742.53125 550.539062 " fill-opacity="1" fill-rule="nonzero"/><path fill="#5e9adf" d="M 418.730469 383.046875 C 418.730469 383.046875 618.933594 723.296875 741.59375 779.691406 C 802.6875 799.898438 845.371094 641.523438 739.4375 548.941406 C 633.503906 456.359375 555.019531 428.164062 508.492188 337.460938 C 483.585938 306.914062 399.183594 318.226562 418.730469 383.046875 Z M 418.730469 383.046875 " fill-opacity="1" fill-rule="nonzero"/><path fill="#5e9adf" d="M 417.367188 368.210938 C 416.519531 367.125 415.957031 365.636719 415.773438 363.5625 C 414.496094 349.257812 418.503906 332.289062 421.761719 318.4375 C 425.152344 304.011719 430.148438 289.929688 437.222656 276.886719 C 442.285156 267.554688 448.355469 258.820312 454.058594 249.867188 C 464.527344 233.421875 473.746094 216.230469 482.824219 198.996094 C 485.90625 193.140625 489.503906 187.832031 492.394531 181.847656 C 494.925781 176.605469 497.746094 171.761719 503.769531 170.15625 C 507.890625 169.054688 512.234375 169.207031 516.488281 169.558594 C 535.398438 171.109375 553.789062 176.320312 572.039062 181.507812 C 581.753906 184.269531 591.46875 187.03125 601.183594 189.789062 C 604.550781 190.746094 607.996094 191.742188 610.835938 193.785156 C 620.683594 200.863281 610.808594 224.390625 608.113281 234.027344 C 603.816406 249.410156 598.179688 264.402344 591.691406 278.992188 C 586.492188 290.679688 580.597656 302.339844 571.578125 311.410156 C 568.570312 314.4375 565.148438 317.195312 561.117188 318.601562 C 552.394531 321.644531 542.746094 317.875 533.582031 319.058594 C 532.410156 319.210938 531.199219 319.464844 530.261719 320.1875 C 529.167969 321.03125 528.609375 322.382812 528.109375 323.671875 C 519.707031 345.371094 506.882812 361.984375 483.851562 369.058594 C 472.957031 372.40625 461.4375 373.410156 450.085938 373.078125 C 443.265625 372.878906 436.40625 372.394531 429.625 371.644531 C 424.5625 371.085938 419.792969 371.308594 417.367188 368.210938 Z M 417.367188 368.210938 " fill-opacity="1" fill-rule="nonzero"/><path stroke-linecap="round" transform="matrix(0.72085, 0, 0, 0.72085, 1073.280768, 323.890813)" fill-opacity="1" fill="#f7e264" fill-rule="nonzero" stroke-linejoin="round" d="M -80.020922 -202.30039 C -79.717461 -202.284134 -79.549474 -202.267877 -79.549474 -202.267877 C -79.549474 -202.267877 -108.719665 -214.769388 -108.719665 -214.769388 C -108.719665 -214.769388 -128.753512 -209.014466 -131.533432 -208.813965 C -134.313352 -208.618883 -159.506036 -230.240481 -173.394798 -231.828233 C -187.283559 -233.415984 -187.652047 -233.12878 -184.677045 -240.270952 C -184.677045 -240.270952 -124.450868 -271.223977 -121.475866 -272.416146 C -118.495446 -273.608314 -95.226487 -263.572424 -81.532808 -260.001338 C -67.844548 -256.430252 27.984111 -218.340474 32.151281 -218.340474 C 36.318451 -218.340474 83.029774 -236.396405 123.216685 -242.741992 C 134.526028 -244.530244 141.6682 -243.338076 141.6682 -243.338076 C 141.6682 -243.338076 170.686661 -212.536781 169.792535 -162.980511 C 178.278606 -135.750302 187.653384 -114.773559 182.738399 -101.377922 C 177.828833 -87.987704 157.296443 -22.808609 155.063837 -12.545124 C 152.83123 -2.276219 126.939502 178.077175 126.939502 178.077175 C 126.939502 178.077175 129.47015 239.08368 111.609301 248.902812 C 93.75387 258.727363 92.567121 273.607792 57.744968 248.610189 C 22.922814 223.607168 -7.72675 173.910005 -10.999794 160.81241 C -14.278257 147.720234 -18.147385 124.505465 -18.147385 124.505465 C -18.147385 124.505465 -22.607179 115.282417 -22.607179 115.282417 C -22.607179 115.282417 -40.760651 77.783304 -40.760651 77.783304 C -40.760651 77.783304 -72.905845 -18.343397 -104.747577 -47.215546 C -125.285386 -74.592067 -133.516767 -102.071547 -104.351994 -188.9752 C -101.442019 -193.429574 -97.37239 -197.228256 -92.603717 -199.618012 C -87.087229 -202.381675 -82.81168 -201.487548 -76.975474 -201.471292 C -72.152611 -201.460454 -66.928746 -202.587595 -62.138397 -203.167422 C -55.565214 -203.969426 -49.035383 -205.1345 -42.429687 -205.660138 C -37.969893 -206.012369 -33.336694 -206.044883 -29.191199 -204.348752 C -22.715557 -201.693468 -18.402076 -194.876433 -17.979398 -187.89141 C -17.55672 -180.900969 -20.715966 -173.959298 -25.695978 -169.038894 C -30.036555 -164.752507 -35.699354 -161.858789 -41.578912 -160.352322 C -44.581009 -159.577412 -47.837796 -160.287294 -50.959109 -160.265619 C -54.584385 -160.238524 -58.220498 -160.065118 -61.829517 -160.509471 " stroke="#183944" stroke-width="5" stroke-opacity="1" stroke-miterlimit="4"/><path stroke-linecap="butt" transform="matrix(0.72085, 0, 0, 0.72085, 1153.49702, 267.905954)" fill="none" stroke-linejoin="miter" d="M -32.005586 -77.772316 C -24.093924 -73.670173 -15.900476 -69.627639 -8.335626 -64.235787 C -0.142178 -57.500036 6.160058 -50.764284 14.353505 -44.023114 C 21.918355 -36.615414 30.111803 -28.530345 30.740401 -17.74664 C 32.003016 -8.317673 30.740401 1.116714 30.111803 10.551101 C 28.854608 32.78504 31.374418 55.690929 29.987167 77.773138 " stroke="#183944" stroke-width="5" stroke-opacity="1" stroke-miterlimit="10"/><path stroke-linecap="butt" transform="matrix(0.72085, 0, 0, 0.72085, 1054.846465, 182.475817)" fill="none" stroke-linejoin="miter" d="M -83.141251 -18.591373 C -69.951534 -21.858998 -57.151982 -25.229583 -43.003111 -27.9228 C -31.547457 -29.272118 -20.097222 -31.965334 -9.318936 -27.9228 C 2.808667 -22.530948 13.592371 -15.795197 23.698708 -7.710128 C 31.783776 -0.297008 37.847578 7.788061 43.91138 16.545079 C 47.953914 21.936931 54.017716 24.630148 59.404149 27.323365 C 66.817269 30.69395 74.902338 30.022 83.144556 31.967402 " stroke="#183944" stroke-width="5" stroke-opacity="1" stroke-miterlimit="10"/><path stroke-linecap="butt" transform="matrix(0.72085, 0, 0, 0.72085, 1033.742066, 322.464935)" fill="none" stroke-linejoin="miter" d="M -34.621484 -80.650315 C -34.621484 -80.650315 -30.454314 -53.468877 -24.899893 -46.131622 C -19.345473 -38.788949 8.632551 19.540596 8.632551 19.540596 C 8.632551 19.540596 23.512979 75.691725 34.621821 80.650062 " stroke="#183944" stroke-width="5" stroke-opacity="1" stroke-miterlimit="10"/><path stroke-linecap="butt" transform="matrix(0.72085, 0, 0, 0.72085, 1077.7926, 433.234462)" fill="none" stroke-linejoin="miter" d="M -29.462303 -40.869819 C -29.462303 -40.869819 -20.73238 -29.560477 -16.960793 -25.593808 C -13.194624 -21.627138 8.827976 9.526388 9.223559 10.317554 C 9.624561 11.10872 19.346152 35.515658 29.463326 40.869577 " stroke="#183944" stroke-width="5" stroke-opacity="1" stroke-miterlimit="10"/><path stroke-linecap="round" transform="matrix(0.72085, 0, 0, 0.72085, 990.637468, 142.93573)" fill-opacity="1" fill="#f7e264" fill-rule="nonzero" stroke-linejoin="round" d="M -70.945894 12.959157 C -63.993385 -3.189305 -48.793239 -14.206024 -31.728975 -18.443641 C -14.664711 -22.681257 3.212396 -21.592049 20.758946 -20.475746 C 26.13996 -20.134352 31.526394 -19.792959 36.907408 -19.451565 C 44.011648 -18.996373 51.506051 -18.416546 57.363933 -14.374012 C 60.967533 -11.892134 63.633655 -8.288534 65.97464 -4.587393 C 67.990488 -1.401052 69.843768 2.007465 70.3965 5.746539 C 70.949233 9.480193 69.979242 13.625688 67.118038 16.091308 C 64.332699 18.481064 60.403962 18.871228 56.746173 19.158432 C 44.271757 20.123005 31.797341 21.092997 19.322925 22.062988 C 15.329161 22.371868 11.308302 22.680748 7.319957 22.339354 C -0.840977 21.651148 -8.508787 18.307658 -16.458382 16.345999 C -30.769821 12.812846 -32.807345 10.314711 -46.484767 15.804104 " stroke="#183944" stroke-width="5" stroke-opacity="1" stroke-miterlimit="4"/><path stroke-linecap="butt" transform="matrix(0.72085, 0, 0, 0.72085, 615.527735, 517.917714)" fill-opacity="1" fill="#f7e264" fill-rule="nonzero" stroke-linejoin="miter" d="M -217.045627 -206.775826 C -217.045627 -206.775826 -185.317692 -241.327032 -168.800742 -231.876388 C -152.283792 -222.420326 -154.456789 -201.123864 -154.456789 -201.123864 C -154.456789 -201.123864 -63.6244 -2.064265 119.790699 123.107991 C 189.770981 167.873912 231.057938 185.696829 209.761476 213.512284 C 188.465014 241.327739 128.921625 238.28771 116.75067 218.73073 C 104.579715 199.168331 95.454208 171.786392 92.847695 167.440397 C 90.241181 163.094401 -173.146738 -114.198536 -191.836686 -147.665952 C -210.526634 -181.133369 -231.059024 -193.73784 -217.045627 -206.775826 Z M -217.045627 -206.775826 " stroke="#183944" stroke-width="5" stroke-opacity="1" stroke-miterlimit="10"/><path stroke-linecap="butt" transform="matrix(0.72085, 0, 0, 0.72085, 878.33029, 462.478581)" fill-opacity="1" fill="#f7e264" fill-rule="nonzero" stroke-linejoin="miter" d="M -210.458648 263.856567 C -207.15309 255.419267 -202.341065 247.437158 -196.754131 240.349175 C -189.763689 231.489197 -181.57566 223.669656 -173.181712 216.158996 C -169.057893 212.468693 -158.46927 203.587039 -151.603465 195.025103 C -145.344581 187.2164 -76.881604 66.823655 -34.445831 -31.562747 C 7.485981 -128.789494 45.028446 -179.120674 54.896349 -217.01537 C 64.76967 -254.915485 69.234882 -336.438124 86.776014 -348.430254 C 104.311726 -360.427802 163.497465 -367.569975 178.697612 -351.827934 C 193.892339 -336.080474 216.256333 -284.519193 183.981085 -251.685793 C 183.981085 -251.685793 170.498745 -237.710329 167.046876 -237.883735 C 163.600425 -238.051722 142.748317 -234.556502 140.185155 -229.663192 C 136.370217 -222.36929 132.105505 -215.275888 128.090066 -208.090364 C 118.113784 -190.240353 108.229625 -172.336152 98.42675 -154.3886 C 84.700557 -129.255524 71.147771 -104.024906 57.790066 -78.691329 C 42.48696 -49.667449 27.443963 -20.502676 12.785711 8.85176 C -1.959243 38.368764 -16.330291 68.075431 -29.996875 98.107236 C -42.097384 124.703427 -53.731863 151.55431 -63.951997 178.936249 C -67.528502 188.516947 -70.931601 198.173511 -73.993306 207.933034 C -75.505192 212.73964 -76.616076 217.454124 -77.651095 222.325758 C -79.807836 232.437513 -84.446454 241.747264 -86.034206 252.178737 C -86.695317 256.540989 -87.112576 260.968269 -86.819953 265.373873 C -86.511073 269.942045 -85.443541 274.423514 -84.657793 278.937497 C -83.037528 288.274343 -82.647364 297.779176 -82.2572 307.251495 C -81.959158 314.58333 -81.666535 322.028963 -83.362665 329.171135 C -86.93917 344.246646 -99.332302 356.298384 -113.762958 361.934089 C -128.193614 367.569794 -144.380008 367.412644 -159.531384 364.177533 C -163.725649 363.283407 -168.017455 362.08582 -171.328432 359.360089 C -173.609808 357.490552 -175.289682 354.997837 -176.817825 352.478027 C -182.415597 343.276655 -186.490645 333.143224 -188.820793 322.625048 C -189.980447 317.390345 -190.858317 317.428277 -195.648666 315.526227 C -199.219752 314.106463 -202.736648 312.551225 -206.150585 310.800905 C -211.493667 308.064337 -213.552867 301.501992 -214.468669 295.931315 C -216.256921 285.082583 -214.479507 274.130891 -210.458648 263.856567 Z M -210.458648 263.856567 " stroke="#183944" stroke-width="5" stroke-opacity="1" stroke-miterlimit="10"/><path stroke-linecap="butt" transform="matrix(0.72085, 0, 0, 0.72085, 762.1696, 666.197386)" fill="none" stroke-linejoin="miter" d="M -19.31539 18.318583 C -12.259921 6.976727 -4.971437 -4.61982 5.638861 -12.731984 C 9.578436 -15.744918 14.471745 -18.318918 19.316283 -17.245966 " stroke="#183944" stroke-width="5" stroke-opacity="1" stroke-miterlimit="10"/><path stroke-linecap="butt" transform="matrix(0.72085, 0, 0, 0.72085, 975.426701, 247.496463)" fill-opacity="1" fill="#f7e264" fill-rule="nonzero" stroke-linejoin="miter" d="M -38.291556 -41.016522 C -38.291556 -41.016522 -21.005115 -21.405353 -11.343132 -12.008898 C 4.740302 3.64102 38.289003 8.523492 26.914634 41.020917 " stroke="#183944" stroke-width="5" stroke-opacity="1" stroke-miterlimit="10"/><path fill="#f7e264" d="M 712.691406 662.273438 C 712.691406 662.273438 732.898438 662.726562 737.597656 666.496094 C 742.296875 670.261719 740.886719 688.589844 744.179688 688.589844 C 747.46875 688.589844 743.625 716.789062 773.273438 722.429688 C 779.894531 737.9375 783.800781 769.894531 748.246094 762.375 C 712.691406 754.855469 680.730469 704.097656 665.695312 691.410156 C 650.65625 678.722656 513.898438 519.40625 449.515625 421.65625 C 431.1875 392.519531 419.90625 387.347656 426.957031 377.007812 C 434.003906 366.671875 446.695312 373.25 450.921875 373.25 C 455.152344 373.25 466.433594 363.382812 471.601562 373.25 C 476.769531 383.117188 465.960938 398.15625 494.160156 435.753906 C 522.359375 473.351562 612.632812 613.386719 712.691406 662.273438 Z M 712.691406 662.273438 " fill-opacity="1" fill-rule="nonzero"/><g clip-path="url(#5e8fdba60e)"><path stroke-linecap="butt" transform="matrix(0.72085, 0, 0, 0.72085, 601.85388, 566.637111)" fill="none" stroke-linejoin="miter" d="M 153.759406 132.671534 C 153.759406 132.671534 181.791619 133.300132 188.310612 138.529416 C 194.829605 143.753281 192.873366 169.17898 197.441538 169.17898 C 202.004291 169.17898 196.672047 208.298359 237.801855 216.123318 C 246.98697 237.636538 252.405917 281.968943 203.082662 271.53747 C 153.759406 261.105997 109.421582 190.6922 88.564055 173.09146 C 67.701109 155.49072 -122.016225 -65.521033 -211.33131 -201.124763 C -236.757009 -241.544688 -252.406928 -248.719374 -242.625729 -263.063327 C -232.849948 -277.401861 -215.24379 -268.276354 -209.380489 -268.276354 C -203.511769 -268.276354 -187.86185 -281.964614 -180.692584 -268.276354 C -173.523317 -254.588094 -188.517543 -233.725148 -149.398165 -181.567783 C -110.278786 -129.410418 14.953079 64.853413 153.759406 132.671534 Z M 153.759406 132.671534 " stroke="#183944" stroke-width="5" stroke-opacity="1" stroke-miterlimit="10"/></g><path stroke-linecap="butt" transform="matrix(0.72085, 0, 0, 0.72085, 865.173371, 402.549257)" fill-opacity="1" fill="#ef597a" fill-rule="nonzero" stroke-linejoin="miter" d="M -233.602042 269.253335 C -233.602042 269.253335 -247.360748 271.534711 -249.652963 271.209574 C -251.945178 270.884438 -236.625814 283.597287 -236.625814 283.597287 C -236.625814 283.597287 -247.685885 303.154267 -247.685885 303.154267 C -247.685885 303.154267 -223.441516 306.416473 -223.441516 306.416473 C -223.441516 306.416473 12.450665 107.573632 61.757664 -42.379469 C 97.305956 -141.145197 93.371801 -206.015412 135.309032 -237.634967 C 177.246262 -269.254523 206.080479 -256.541674 206.080479 -256.541674 C 206.080479 -256.541674 236.876355 -238.940934 236.876355 -238.940934 C 236.876355 -238.940934 233.272755 -259.066903 233.272755 -259.066903 C 233.272755 -259.066903 243.351997 -258.080654 243.351997 -258.080654 C 243.351997 -258.080654 251.946447 -269.57966 238.843433 -271.210763 C 225.735 -272.841866 150.384542 -306.417662 100.909556 -238.285241 C 51.439989 -170.158239 74.042417 -165.270349 34.727956 -137.563273 C -4.586504 -109.850778 -96.253411 -39.659158 -115.474416 72.041597 C -131.200201 167.2254 -173.86357 256.757243 -233.602042 269.253335 Z M -233.602042 269.253335 " stroke="#183944" stroke-width="5" stroke-opacity="1" stroke-miterlimit="10"/><path fill="#ffffff" d="M 686.566406 598.554688 C 686.566406 598.554688 707.578125 597.636719 724.261719 583.484375 C 740.636719 569.59375 751.652344 547.996094 761.601562 527.027344 C 772.867188 503.28125 788.476562 476.65625 788.476562 476.65625 C 788.476562 476.65625 786.445312 502.609375 786.445312 502.609375 C 786.445312 502.609375 808.519531 475.863281 808.519531 475.863281 C 808.519531 475.863281 812.4375 472.890625 812.4375 472.890625 C 812.4375 472.890625 774.929688 556.175781 768.214844 564.097656 C 761.5 572.023438 705.671875 625.089844 705.671875 625.089844 C 705.671875 625.089844 686.625 621.078125 686.625 621.078125 C 686.625 621.078125 693.574219 608.214844 693.574219 608.214844 C 693.574219 608.214844 686.566406 598.554688 686.566406 598.554688 Z M 686.566406 598.554688 " fill-opacity="1" fill-rule="nonzero"/><path fill="#ffffff" d="M 902.5 293.019531 C 902.5 293.019531 889.164062 310.839844 891.46875 311.601562 C 893.773438 312.363281 909.109375 304.394531 909.109375 304.394531 C 909.109375 304.394531 910.601562 316.347656 910.601562 316.347656 C 910.601562 316.347656 928.242188 302.910156 928.242188 302.910156 C 928.242188 302.910156 938.808594 257.539062 950.957031 243.367188 C 963.109375 229.199219 975.632812 220.921875 986.566406 218.902344 C 997.496094 216.886719 1013.101562 214.445312 1019.253906 217.203125 C 1025.410156 219.964844 1034.953125 209.617188 1032.597656 205.929688 C 1030.242188 202.238281 995.085938 198.523438 987.960938 200.566406 C 980.832031 202.609375 953.636719 199.984375 921.078125 255.519531 C 913.117188 266.1875 914.886719 276.628906 902.5 293.019531 Z M 902.5 293.019531 " fill-opacity="1" fill-rule="nonzero"/><path stroke-linecap="butt" transform="matrix(0.72085, 0, 0, 0.72085, 865.173371, 402.549257)" fill="none" stroke-linejoin="miter" d="M -233.602042 269.253335 C -233.602042 269.253335 -247.360748 271.534711 -249.652963 271.209574 C -251.945178 270.884438 -236.625814 283.597287 -236.625814 283.597287 C -236.625814 283.597287 -247.685885 303.154267 -247.685885 303.154267 C -247.685885 303.154267 -223.441516 306.416473 -223.441516 306.416473 C -223.441516 306.416473 12.450665 107.573632 61.757664 -42.379469 C 97.305956 -141.145197 93.371801 -206.015412 135.309032 -237.634967 C 177.246262 -269.254523 206.080479 -256.541674 206.080479 -256.541674 C 206.080479 -256.541674 236.876355 -238.940934 236.876355 -238.940934 C 236.876355 -238.940934 233.272755 -259.066903 233.272755 -259.066903 C 233.272755 -259.066903 243.351997 -258.080654 243.351997 -258.080654 C 243.351997 -258.080654 251.946447 -269.57966 238.843433 -271.210763 C 225.735 -272.841866 150.384542 -306.417662 100.909556 -238.285241 C 51.439989 -170.158239 74.042417 -165.270349 34.727956 -137.563273 C -4.586504 -109.850778 -100.89203 -40.602055 -120.65493 99.353089 C -149.142334 210.143461 -180.285023 258.101142 -233.602042 269.253335 Z M -233.602042 269.253335 " stroke="#183944" stroke-width="5" stroke-opacity="1" stroke-miterlimit="10"/><path stroke-linecap="butt" transform="matrix(0.72085, 0, 0, 0.72085, 849.585659, 367.381115)" fill="none" stroke-linejoin="miter" d="M 63.342457 -69.75575 C 63.342457 -69.75575 -31.017667 -10.645876 -63.341686 69.760459 " stroke="#183944" stroke-width="5" stroke-opacity="1" stroke-miterlimit="10"/><path stroke-linecap="butt" transform="matrix(0.720741, -0.0125806, 0.0125806, 0.720741, 878.753338, 419.710319)" fill-opacity="1" fill="#ef597a" fill-rule="nonzero" stroke-linejoin="miter" d="M -250.023095 273.17782 C -250.023095 273.17782 -168.110031 228.544972 -71.239995 46.142431 C -21.181204 -41.830121 92.586877 -168.607247 135.495198 -199.656085 C 175.803319 -232.641811 196.71332 -329.236556 196.71332 -329.236556 C 196.71332 -329.236556 206.681644 -323.415155 206.897587 -311.87811 C 206.897587 -311.87811 221.74161 -328.913501 232.689364 -328.592332 C 232.689364 -328.592332 224.123565 -311.989332 224.343941 -309.400254 C 224.343941 -309.400254 239.83784 -318.023653 245.470862 -318.13128 C 251.103884 -318.238907 192.378134 -234.260256 162.151562 -124.625566 C 115.342894 20.26797 37.001833 118.906165 -37.760506 168.389871 C -112.522846 217.873578 -211.340976 294.843798 -211.013957 315.542198 C -211.013957 315.542198 -213.399182 329.234267 -213.399182 329.234267 C -213.399182 329.234267 -225.535728 313.494775 -224.454028 308.966467 C -223.36691 304.438253 -250.025435 302.498749 -250.025435 302.498749 C -250.025435 302.498749 -240.270636 285.466662 -240.270636 285.466662 C -240.270636 285.466662 -251.10871 280.724873 -250.023095 273.17782 Z M -250.023095 273.17782 " stroke="#183944" stroke-width="5" stroke-opacity="1" stroke-miterlimit="10"/><path fill="#ffffff" d="M 702.523438 619.472656 C 702.523438 619.472656 736.859375 595.421875 764.851562 556.546875 C 792.839844 517.675781 798.886719 514.09375 798.886719 514.09375 C 798.886719 514.09375 799.269531 536.144531 799.269531 536.144531 C 799.269531 536.144531 830.871094 524.277344 835.382812 523.460938 C 839.566406 522.703125 830.375 538.105469 829.003906 540.371094 C 828.894531 540.550781 828.835938 540.648438 828.835938 540.648438 C 828.835938 540.648438 837.464844 540.695312 838.613281 542.785156 C 839.761719 544.871094 836.398438 551.355469 836.398438 551.355469 C 836.398438 551.355469 836.210938 552.675781 836.210938 552.675781 C 836.210938 552.675781 754.019531 619.914062 754.019531 619.914062 C 754.019531 619.914062 729.113281 637.902344 729.234375 656.964844 C 722.230469 653.925781 721.121094 646.871094 721.121094 646.871094 C 721.121094 646.871094 721.105469 643.730469 721.105469 643.730469 C 721.105469 643.730469 702.898438 640.90625 702.898438 640.90625 C 702.898438 640.90625 709.269531 629.335938 709.269531 629.335938 C 709.269531 629.335938 699.289062 623.59375 702.523438 619.472656 Z M 702.523438 619.472656 " fill-opacity="1" fill-rule="nonzero"/><path fill="#ffffff" d="M 956.851562 289.132812 C 956.851562 289.132812 950.003906 301.972656 949.632812 304.824219 C 955.300781 303.671875 964.648438 302.140625 964.648438 302.140625 C 964.648438 302.140625 963.136719 312.121094 964.917969 317.667969 C 966.699219 323.222656 965.734375 322.183594 965.734375 322.183594 C 965.734375 322.183594 972.191406 319.621094 972.191406 319.621094 C 972.191406 319.621094 984.921875 314.160156 986.214844 312.824219 C 986.214844 312.824219 987.886719 327.167969 992.996094 330.398438 C 997.964844 313.945312 1005.34375 292.472656 1005.34375 292.472656 C 1005.34375 292.472656 1016.453125 259.292969 1023.421875 245.292969 C 1030.394531 231.296875 1051.265625 190.101562 1051.265625 190.101562 C 1051.265625 190.101562 1051.21875 187.382812 1051.21875 187.382812 C 1051.21875 187.382812 1036.632812 193.890625 1036.632812 193.890625 C 1036.632812 193.890625 1041.75 179.507812 1041.855469 179.222656 C 1041.960938 178.933594 1028.453125 183.542969 1023.878906 192.996094 C 1023.488281 182.679688 1017.222656 179.636719 1017.222656 179.636719 C 1017.222656 179.636719 1012.726562 187.554688 1009.222656 207.101562 C 1005.71875 226.644531 989.703125 259.363281 976.847656 271.070312 C 963.992188 282.773438 956.574219 289.273438 956.574219 289.273438 " fill-opacity="1" fill-rule="nonzero"/><path stroke-linecap="butt" transform="matrix(0.720741, -0.0125806, 0.0125806, 0.720741, 878.832682, 419.708975)" fill="none" stroke-linejoin="miter" d="M -250.024819 273.179655 C -250.024819 273.179655 -168.106336 228.546901 -71.241623 46.138847 C -21.182928 -41.828286 92.585153 -168.605413 135.493475 -199.654251 C 175.80169 -232.645394 196.711596 -329.234721 196.711596 -329.234721 C 196.711596 -329.234721 206.679921 -323.41332 206.895958 -311.881693 C 206.895958 -311.881693 221.745305 -328.911571 232.687641 -328.590498 C 232.687641 -328.590498 224.12726 -311.987403 224.342218 -309.398419 C 224.342218 -309.398419 239.836211 -318.027237 245.474651 -318.134769 C 251.107673 -318.242395 192.376411 -234.258421 162.149839 -124.623732 C 115.341265 20.264387 37.00011 118.907999 -37.76223 168.391706 C -112.52457 217.875413 -211.342699 294.845633 -211.01568 315.544033 C -211.01568 315.544033 -213.400906 329.236102 -213.400906 329.236102 C -213.400906 329.236102 -225.537451 313.49661 -224.450333 308.968396 C -223.368633 304.440088 -250.021741 302.500678 -250.021741 302.500678 C -250.021741 302.500678 -240.27236 285.468496 -240.27236 285.468496 C -240.27236 285.468496 -251.10492 280.721385 -250.024819 273.179655 Z M -250.024819 273.179655 " stroke="#183944" stroke-width="5" stroke-opacity="1" stroke-miterlimit="10"/><path stroke-linecap="butt" transform="matrix(0.720741, -0.0125806, 0.0125806, 0.720741, 909.839384, 429.47815)" fill="none" stroke-linejoin="miter" d="M 102.773337 -145.794114 C 102.773337 -145.794114 61.720428 29.22001 -102.77208 145.795149 " stroke="#183944" stroke-width="5" stroke-opacity="1" stroke-miterlimit="10"/><path stroke-linecap="butt" transform="matrix(0.720741, -0.0125806, 0.0125806, 0.720741, 900.074073, 376.82385)" fill-opacity="1" fill="#ef597a" fill-rule="nonzero" stroke-linejoin="miter" d="M 52.010307 -65.006918 C 52.010307 -65.006918 -31.530386 28.781956 -52.009921 65.007949 " stroke="#183944" stroke-width="5" stroke-opacity="1" stroke-miterlimit="10"/></svg>